<?xml version="1.0" standalone="no"?>
<!DOCTYPE svg PUBLIC "-//W3C//DTD SVG 20010904//EN"
 "http://www.w3.org/TR/2001/REC-SVG-20010904/DTD/svg10.dtd">
<svg version="1.0" xmlns="http://www.w3.org/2000/svg"
 width="156.000000pt" height="99.000000pt" viewBox="0 0 156.000000 99.000000"
 preserveAspectRatio="xMidYMid meet">

<g transform="translate(0.000000,99.000000) scale(0.100000,-0.100000)"
fill="#000000" stroke="none">
<path d="M700 973 c0 -3 8 -15 17 -25 15 -17 15 -20 -12 -48 l-29 -30 -22 21
c-12 11 -25 16 -28 11 -3 -5 3 -17 14 -27 18 -16 18 -19 3 -49 -22 -43 -43
-66 -62 -66 -21 0 -121 -101 -121 -122 0 -8 -7 -21 -15 -28 -8 -7 -15 -17 -15
-23 0 -5 9 -2 20 8 20 18 21 18 52 -13 31 -31 31 -32 13 -52 -21 -24 -9 -27
16 -4 16 14 20 14 51 -1 45 -24 68 -45 68 -64 0 -20 100 -121 120 -121 7 0 22
-7 32 -17 25 -22 36 -8 13 17 -18 20 -18 21 10 50 l29 30 22 -21 c12 -11 25
-16 28 -11 3 5 -3 17 -14 27 -15 14 -17 22 -9 43 14 35 48 72 69 72 20 0 120
101 120 122 0 8 7 21 15 28 8 7 15 17 15 23 0 5 -8 3 -18 -6 -25 -23 -34 -22
-67 13 -28 29 -28 30 -10 50 10 11 16 22 13 25 -3 3 -13 -4 -23 -15 -17 -19
-18 -19 -54 0 -41 20 -64 44 -67 67 -4 24 -75 94 -111 109 -17 8 -34 18 -38
24 -7 11 -25 14 -25 3z m70 -56 c0 -7 -5 -18 -12 -25 -9 -9 -9 -12 0 -12 7 0
12 5 12 10 0 6 7 10 15 10 19 0 19 -9 -2 -32 -9 -10 -11 -18 -6 -18 6 0 16 7
23 15 9 11 16 13 23 6 7 -7 5 -17 -8 -31 -10 -11 -13 -20 -8 -20 6 0 16 7 23
15 7 8 17 12 22 9 5 -4 -11 -28 -37 -54 -29 -29 -43 -50 -36 -54 26 -17 9 -28
-32 -22 -36 6 -46 3 -62 -14 l-19 -20 -32 31 -33 32 29 34 c17 19 30 38 30 44
0 12 90 109 101 109 5 0 9 -6 9 -13z m111 -133 c7 -8 29 -24 48 -35 55 -29
126 -98 114 -110 -7 -7 -14 -5 -23 6 -7 8 -17 15 -23 15 -5 0 -2 -9 8 -20 23
-25 12 -39 -13 -17 -24 22 -37 9 -15 -15 22 -25 8 -36 -17 -13 -11 10 -20 13
-20 8 0 -6 7 -16 15 -23 8 -7 12 -17 9 -22 -4 -5 -28 11 -54 37 -29 29 -50 43
-54 36 -16 -25 -26 -9 -20 30 6 36 4 44 -17 60 l-24 18 29 30 c34 36 39 37 57
15z m-203 -122 c9 9 12 2 12 -33 0 -33 6 -51 20 -64 20 -19 20 -19 -11 -51
l-32 -33 -19 24 c-10 13 -33 28 -51 34 -36 12 -125 96 -114 107 4 4 15 0 25
-9 24 -22 37 -9 15 15 -22 25 -8 36 17 13 16 -14 20 -15 20 -4 0 8 -5 20 -12
27 -20 20 1 26 22 7 11 -10 20 -13 20 -8 0 6 -7 16 -15 23 -8 7 -12 17 -9 22
4 5 27 -11 53 -36 37 -36 49 -44 59 -34z m137 -18 l0 -54 -52 0 -51 0 -4 55
-3 54 50 3 c28 2 52 1 55 0 3 -2 5 -28 5 -58z m97 -112 c-7 -9 -20 -30 -30
-46 -25 -44 -103 -126 -118 -126 -18 0 -18 14 1 30 8 7 15 17 15 23 0 6 -11 0
-25 -13 -20 -19 -25 -20 -25 -7 0 9 5 19 10 22 6 3 10 11 10 17 0 6 -8 4 -18
-5 -10 -10 -22 -17 -25 -17 -13 0 -7 23 10 42 9 10 11 18 6 18 -6 0 -16 -7
-23 -15 -7 -8 -16 -15 -21 -15 -20 0 -7 28 31 65 29 28 38 44 34 59 -6 17 -2
18 33 14 29 -4 46 -1 64 13 24 18 24 18 54 -11 25 -26 28 -33 17 -48z"/>
<path d="M44 220 c-25 -10 -36 -44 -20 -63 6 -7 30 -19 53 -26 47 -13 56 -22
47 -45 -10 -26 -78 -21 -98 7 -15 20 -16 20 -14 2 5 -29 53 -49 92 -38 27 8
31 13 31 43 0 31 -3 34 -50 49 -38 12 -50 21 -50 36 0 28 63 35 82 9 7 -10 15
-15 18 -13 9 10 -20 38 -45 43 -14 3 -35 1 -46 -4z"/>
<path d="M180 140 l0 -90 65 0 c37 0 65 4 65 10 0 6 -25 10 -55 10 -54 0 -55
0 -55 30 0 29 1 30 50 30 28 0 50 5 50 10 0 6 -22 10 -50 10 -49 0 -50 1 -50
30 0 30 1 30 55 30 30 0 55 5 55 10 0 6 -28 10 -65 10 l-65 0 0 -90z"/>
<path d="M389 219 c-29 -11 -49 -46 -49 -88 0 -64 73 -100 123 -61 15 12 27
29 27 38 -1 13 -6 10 -21 -11 -26 -34 -82 -38 -99 -8 -16 31 -12 86 8 104 23
21 65 22 82 2 16 -19 31 -19 24 -1 -4 11 -61 40 -68 35 -1 0 -13 -5 -27 -10z"/>
<path d="M571 219 c-76 -31 -67 -145 13 -165 61 -15 117 50 98 114 -6 19 -9
38 -7 42 2 3 -4 6 -13 6 -9 1 -28 4 -42 7 -14 3 -36 2 -49 -4z m69 -19 c8 -5
11 -10 5 -10 -5 0 -2 -5 8 -11 21 -12 22 -57 1 -87 -18 -27 -69 -30 -96 -5
-23 20 -24 80 -1 105 17 19 59 24 83 8z"/>
<path d="M720 140 l0 -90 44 0 c66 0 96 28 96 90 0 62 -30 90 -96 90 l-44 0 0
-90z m109 57 c21 -26 24 -75 7 -102 -13 -20 -25 -25 -56 -25 l-40 0 0 70 0 70
39 0 c21 0 44 -6 50 -13z"/>
<path d="M910 140 l0 -90 60 0 c33 0 60 4 60 10 0 6 -25 10 -55 10 -54 0 -55
0 -55 30 0 29 1 30 50 30 28 0 50 5 50 10 0 6 -22 10 -50 10 -49 0 -50 1 -50
30 0 30 1 30 55 30 30 0 55 5 55 10 0 6 -27 10 -60 10 l-60 0 0 -90z"/>
<path d="M1254 220 c-96 -39 -48 -191 52 -166 14 4 32 2 39 -4 13 -11 14 -6
17 88 2 30 -3 48 -17 62 -25 23 -63 32 -91 20z m80 -32 c19 -26 20 -61 5 -89
-9 -17 -13 -18 -27 -7 -13 11 -15 11 -9 -4 5 -14 1 -18 -20 -18 -56 0 -83 67
-47 118 21 30 77 30 98 0z"/>
<path d="M1408 168 c-2 -35 0 -76 3 -93 6 -27 7 -26 8 13 l1 43 48 -3 c47 -3
47 -3 50 -40 2 -21 7 -38 13 -38 13 0 11 64 -3 78 -8 8 -8 15 2 26 17 22 5 62
-22 70 -13 3 -39 6 -60 6 l-36 0 -4 -62z m107 12 c0 -23 -4 -25 -47 -28 -48
-3 -48 -3 -48 28 0 31 0 31 48 28 43 -3 47 -5 47 -28z"/>
<path d="M1077 23 c18 -2 50 -2 70 0 21 2 7 4 -32 4 -38 0 -55 -2 -38 -4z"/>
</g>
</svg>
