<?xml version="1.0" encoding="UTF-8"?>
<!DOCTYPE svg PUBLIC "-//W3C//DTD SVG 1.1//EN" "http://www.w3.org/Graphics/SVG/1.1/DTD/svg11.dtd">
<svg xmlns="http://www.w3.org/2000/svg" version="1.1" width="150px" height="149px" style="shape-rendering:geometricPrecision; text-rendering:geometricPrecision; image-rendering:optimizeQuality; fill-rule:evenodd; clip-rule:evenodd" xmlns:xlink="http://www.w3.org/1999/xlink">
<g><path style="opacity:0.733" fill="#c0accd" d="M 69.5,12.5 C 69.1667,12.5 68.8333,12.5 68.5,12.5C 66.8333,11.1667 65.1667,9.83333 63.5,8.5C 62.791,7.59603 61.791,7.26269 60.5,7.5C 60.7828,6.71087 61.2828,6.0442 62,5.5C 64.9985,7.33292 67.4985,9.66625 69.5,12.5 Z"/></g>
<g><path style="opacity:0.98" fill="#5f377e" d="M 60.5,7.5 C 61.791,7.26269 62.791,7.59603 63.5,8.5C 62.6236,8.36912 61.9569,8.70245 61.5,9.5C 62.1272,10.4168 62.4606,11.4168 62.5,12.5C 59.8083,11.4095 59.1416,9.74279 60.5,7.5 Z"/></g>
<g><path style="opacity:1" fill="#471277" d="M 63.5,8.5 C 65.1667,9.83333 66.8333,11.1667 68.5,12.5C 68.573,14.0269 67.9063,15.0269 66.5,15.5C 65.609,14.8902 64.609,14.5569 63.5,14.5C 63.1667,13.8333 62.8333,13.1667 62.5,12.5C 62.4606,11.4168 62.1272,10.4168 61.5,9.5C 61.9569,8.70245 62.6236,8.36912 63.5,8.5 Z"/></g>
<g><path style="opacity:1" fill="#65a1bd" d="M 69.5,12.5 C 73.7754,11.7497 77.1087,13.083 79.5,16.5C 78.391,16.4431 77.391,16.1098 76.5,15.5C 75.2921,14.7659 73.9587,14.4326 72.5,14.5C 71.8333,14.5 71.1667,14.5 70.5,14.5C 69.6618,14.1583 69.3284,13.4916 69.5,12.5 Z"/></g>
<g><path style="opacity:1" fill="#4391b6" d="M 70.5,14.5 C 71.1667,14.5 71.8333,14.5 72.5,14.5C 73.1667,15.8333 73.8333,17.1667 74.5,18.5C 73.0379,17.5291 71.7046,17.8624 70.5,19.5C 70.5,19.1667 70.5,18.8333 70.5,18.5C 70.5,17.1667 70.5,15.8333 70.5,14.5 Z"/></g>
<g><path style="opacity:1" fill="#0b74a8" d="M 72.5,14.5 C 73.9587,14.4326 75.2921,14.7659 76.5,15.5C 76.5,16.5 76.5,17.5 76.5,18.5C 75.8333,18.5 75.1667,18.5 74.5,18.5C 73.8333,17.1667 73.1667,15.8333 72.5,14.5 Z"/></g>
<g><path style="opacity:1" fill="#1f73ab" d="M 68.5,12.5 C 68.8333,12.5 69.1667,12.5 69.5,12.5C 69.3284,13.4916 69.6618,14.1583 70.5,14.5C 70.5,15.8333 70.5,17.1667 70.5,18.5C 69.1667,18.5 67.8333,18.5 66.5,18.5C 66.5,17.5 66.5,16.5 66.5,15.5C 67.9063,15.0269 68.573,14.0269 68.5,12.5 Z"/></g>
<g><path style="opacity:1" fill="#669abf" d="M 63.5,14.5 C 64.609,14.5569 65.609,14.8902 66.5,15.5C 66.5,16.5 66.5,17.5 66.5,18.5C 66.1667,19.1667 65.8333,19.8333 65.5,20.5C 64.1667,20.8333 62.8333,21.1667 61.5,21.5C 62.6253,19.8712 63.9586,18.3712 65.5,17C 64.6195,16.2917 63.9528,15.4584 63.5,14.5 Z"/></g>
<g><path style="opacity:1" fill="#4991b3" d="M 66.5,18.5 C 67.8333,18.5 69.1667,18.5 70.5,18.5C 70.5,18.8333 70.5,19.1667 70.5,19.5C 69.8333,20.8333 68.8333,21.8333 67.5,22.5C 67.5,21.1667 66.8333,20.5 65.5,20.5C 65.8333,19.8333 66.1667,19.1667 66.5,18.5 Z"/></g>
<g><path style="opacity:1" fill="#137aa7" d="M 76.5,15.5 C 77.391,16.1098 78.391,16.4431 79.5,16.5C 79.5,17.1667 79.5,17.8333 79.5,18.5C 79.0269,19.9063 78.0269,20.573 76.5,20.5C 76.5,19.8333 76.5,19.1667 76.5,18.5C 76.5,17.5 76.5,16.5 76.5,15.5 Z"/></g>
<g><path style="opacity:1" fill="#3f8baf" d="M 74.5,18.5 C 75.1667,18.5 75.8333,18.5 76.5,18.5C 76.5,19.1667 76.5,19.8333 76.5,20.5C 76.3284,21.4916 76.6618,22.1583 77.5,22.5C 76.8333,23.5 76.1667,24.5 75.5,25.5C 75.5,26.1667 75.1667,26.5 74.5,26.5C 74.6495,25.448 74.4828,24.448 74,23.5C 72.9887,24.3366 71.8221,24.67 70.5,24.5C 72.2516,22.7541 73.5849,20.7541 74.5,18.5 Z"/></g>
<g><path style="opacity:1" fill="#0c77a9" d="M 79.5,18.5 C 80.8333,19.8333 80.8333,21.1667 79.5,22.5C 78.8333,22.5 78.1667,22.5 77.5,22.5C 76.6618,22.1583 76.3284,21.4916 76.5,20.5C 78.0269,20.573 79.0269,19.9063 79.5,18.5 Z"/></g>
<g><path style="opacity:1" fill="#3683a6" d="M 79.5,16.5 C 81.4707,18.8082 83.4707,21.1415 85.5,23.5C 83.7085,23.366 82.0418,23.6993 80.5,24.5C 80.1667,23.8333 79.8333,23.1667 79.5,22.5C 80.8333,21.1667 80.8333,19.8333 79.5,18.5C 79.5,17.8333 79.5,17.1667 79.5,16.5 Z"/></g>
<g><path style="opacity:1" fill="#7f5b96" d="M 50.5,24.5 C 46.5033,22.5976 45.17,23.5976 46.5,27.5C 44.3531,26.0679 44.0198,24.2345 45.5,22C 47.668,21.7506 49.3347,22.5839 50.5,24.5 Z"/></g>
<g><path style="opacity:1" fill="#2f82ab" d="M 65.5,20.5 C 66.8333,20.5 67.5,21.1667 67.5,22.5C 65.8008,22.3398 64.1341,22.5065 62.5,23C 63.3366,24.0113 63.67,25.1779 63.5,26.5C 63.1667,27.5 62.5,28.1667 61.5,28.5C 61.7373,27.209 61.404,26.209 60.5,25.5C 60.8333,24.1667 61.1667,22.8333 61.5,21.5C 62.8333,21.1667 64.1667,20.8333 65.5,20.5 Z"/></g>
<g><path style="opacity:0.043" fill="#bee7f3" d="M 77.5,22.5 C 78.1667,22.5 78.8333,22.5 79.5,22.5C 79.8333,23.1667 80.1667,23.8333 80.5,24.5C 80.5,25.1667 80.5,25.8333 80.5,26.5C 80.1667,26.5 79.8333,26.5 79.5,26.5C 79.6309,25.6236 79.2975,24.9569 78.5,24.5C 77.5832,25.1272 76.5832,25.4606 75.5,25.5C 76.1667,24.5 76.8333,23.5 77.5,22.5 Z"/></g>
<g><path style="opacity:0.965" fill="#569cb8" d="M 67.5,22.5 C 66.5,24.1667 65.1667,25.5 63.5,26.5C 63.67,25.1779 63.3366,24.0113 62.5,23C 64.1341,22.5065 65.8008,22.3398 67.5,22.5 Z"/></g>
<g><path style="opacity:1" fill="#3684aa" d="M 74.5,26.5 C 74.1667,27.5 73.5,28.1667 72.5,28.5C 71.1938,27.5326 70.5271,26.1993 70.5,24.5C 71.8221,24.67 72.9887,24.3366 74,23.5C 74.4828,24.448 74.6495,25.448 74.5,26.5 Z"/></g>
<g><path style="opacity:1" fill="#4b92b2" d="M 61.5,21.5 C 61.1667,22.8333 60.8333,24.1667 60.5,25.5C 59.8333,25.5 59.5,25.8333 59.5,26.5C 58.5,26.5 57.5,26.5 56.5,26.5C 57.8333,24.5 59.5,22.8333 61.5,21.5 Z"/></g>
<g><path style="opacity:1" fill="#0f74a4" d="M 83.5,28.5 C 82.5,29.1667 81.5,29.8333 80.5,30.5C 79.6618,30.1583 79.3284,29.4916 79.5,28.5C 79.5,27.8333 79.5,27.1667 79.5,26.5C 79.8333,26.5 80.1667,26.5 80.5,26.5C 85.0854,23.4334 86.0854,24.1 83.5,28.5 Z"/></g>
<g><path style="opacity:1" fill="#4c1a78" d="M 50.5,24.5 C 51.8333,25.1667 52.8333,26.1667 53.5,27.5C 53.5,27.8333 53.5,28.1667 53.5,28.5C 53.189,29.4778 52.5223,30.1445 51.5,30.5C 50.2742,28.7221 48.6075,27.7221 46.5,27.5C 45.17,23.5976 46.5033,22.5976 50.5,24.5 Z"/></g>
<g><path style="opacity:1" fill="#3888ae" d="M 85.5,23.5 C 87.7488,24.0798 89.4154,25.4131 90.5,27.5C 89.1779,27.67 88.0113,27.3366 87,26.5C 86.5172,27.448 86.3505,28.448 86.5,29.5C 85.609,28.8902 84.609,28.5569 83.5,28.5C 86.0854,24.1 85.0854,23.4334 80.5,26.5C 80.5,25.8333 80.5,25.1667 80.5,24.5C 82.0418,23.6993 83.7085,23.366 85.5,23.5 Z"/></g>
<g><path style="opacity:0.882" fill="#5f98b0" d="M 70.5,24.5 C 70.5271,26.1993 71.1938,27.5326 72.5,28.5C 71.516,31.0704 70.3493,31.0704 69,28.5C 68.2274,26.6476 68.7274,25.3143 70.5,24.5 Z"/></g>
<g><path style="opacity:1" fill="#1676a3" d="M 90.5,27.5 C 90.5569,28.609 90.8902,29.609 91.5,30.5C 90.1667,30.5 88.8333,30.5 87.5,30.5C 87.1667,30.5 86.8333,30.5 86.5,30.5C 86.5,30.1667 86.5,29.8333 86.5,29.5C 86.3505,28.448 86.5172,27.448 87,26.5C 88.0113,27.3366 89.1779,27.67 90.5,27.5 Z"/></g>
<g><path style="opacity:1" fill="#4b8fb4" d="M 60.5,25.5 C 61.404,26.209 61.7373,27.209 61.5,28.5C 60.1667,30.5 58.5,32.1667 56.5,33.5C 56.5,33.1667 56.5,32.8333 56.5,32.5C 56.5,31.1667 56.5,29.8333 56.5,28.5C 58.1788,28.7148 59.1788,28.0481 59.5,26.5C 59.5,25.8333 59.8333,25.5 60.5,25.5 Z"/></g>
<g><path style="opacity:1" fill="#549db7" d="M 79.5,26.5 C 79.5,27.1667 79.5,27.8333 79.5,28.5C 78.1274,30.2065 76.4607,31.5398 74.5,32.5C 75.4194,29.9108 77.086,27.9108 79.5,26.5 Z"/></g>
<g><path style="opacity:1" fill="#3884ae" d="M 56.5,26.5 C 57.5,26.5 58.5,26.5 59.5,26.5C 59.1788,28.0481 58.1788,28.7148 56.5,28.5C 56.5,29.8333 56.5,31.1667 56.5,32.5C 56.1667,32.5 55.8333,32.5 55.5,32.5C 55.7709,30.6203 55.1042,29.287 53.5,28.5C 53.5,28.1667 53.5,27.8333 53.5,27.5C 54.609,27.4431 55.609,27.1098 56.5,26.5 Z"/></g>
<g><path style="opacity:1" fill="#1f789e" d="M 79.5,28.5 C 79.3284,29.4916 79.6618,30.1583 80.5,30.5C 79.4154,32.5869 77.7488,33.9202 75.5,34.5C 74.6618,34.1583 74.3284,33.4916 74.5,32.5C 76.4607,31.5398 78.1274,30.2065 79.5,28.5 Z"/></g>
<g><path style="opacity:1" fill="#4a6cab" d="M 46.5,27.5 C 48.6075,27.7221 50.2742,28.7221 51.5,30.5C 52.5223,30.1445 53.189,29.4778 53.5,28.5C 55.1042,29.287 55.7709,30.6203 55.5,32.5C 54.4168,32.5394 53.4168,32.8728 52.5,33.5C 51.8182,32.7573 51.1515,32.0906 50.5,31.5C 48.8333,30.5 47.5,29.1667 46.5,27.5 Z"/></g>
<g><path style="opacity:0.988" fill="#d2f2f7" d="M 83.5,28.5 C 84.609,28.5569 85.609,28.8902 86.5,29.5C 86.5,29.8333 86.5,30.1667 86.5,30.5C 85.8333,31.5 85.1667,32.5 84.5,33.5C 83.8333,33.5 83.5,33.8333 83.5,34.5C 83.1667,34.5 82.8333,34.5 82.5,34.5C 81.2579,32.1082 79.9245,32.2749 78.5,35C 77.2506,35.7401 76.2506,35.5735 75.5,34.5C 77.7488,33.9202 79.4154,32.5869 80.5,30.5C 81.5,29.8333 82.5,29.1667 83.5,28.5 Z"/></g>
<g><path style="opacity:1" fill="#0877aa" d="M 87.5,30.5 C 88.8333,30.5 90.1667,30.5 91.5,30.5C 93.129,32.1959 92.7957,33.1959 90.5,33.5C 89.1266,33.6567 87.7932,33.49 86.5,33C 87.2524,32.3292 87.5858,31.4959 87.5,30.5 Z"/></g>
<g><path style="opacity:1" fill="#5e9bb9" d="M 90.5,27.5 C 94.912,30.5053 96.912,34.5053 96.5,39.5C 96.1667,39.5 95.8333,39.5 95.5,39.5C 95.3861,33.236 94.3861,33.236 92.5,39.5C 91.8333,39.5 91.5,39.8333 91.5,40.5C 90.5,40.5 89.5,40.5 88.5,40.5C 88.5,40.1667 88.5,39.8333 88.5,39.5C 89.1408,38.5178 89.8075,37.5178 90.5,36.5C 90.0431,35.7025 89.3764,35.3691 88.5,35.5C 89.1667,34.8333 89.8333,34.1667 90.5,33.5C 92.7957,33.1959 93.129,32.1959 91.5,30.5C 90.8902,29.609 90.5569,28.609 90.5,27.5 Z"/></g>
<g><path style="opacity:1" fill="#4a93b6" d="M 86.5,30.5 C 86.8333,30.5 87.1667,30.5 87.5,30.5C 87.5858,31.4959 87.2524,32.3292 86.5,33C 87.7932,33.49 89.1266,33.6567 90.5,33.5C 89.8333,34.1667 89.1667,34.8333 88.5,35.5C 87.8333,36.8333 86.8333,37.8333 85.5,38.5C 84.962,36.8828 84.6287,35.2161 84.5,33.5C 85.1667,32.5 85.8333,31.5 86.5,30.5 Z"/></g>
<g><path style="opacity:1" fill="#438daf" d="M 84.5,33.5 C 84.6287,35.2161 84.962,36.8828 85.5,38.5C 85.1667,39.5 84.5,40.1667 83.5,40.5C 83.4226,39.2502 82.756,38.4169 81.5,38C 82.305,36.8873 82.9717,35.7206 83.5,34.5C 83.5,33.8333 83.8333,33.5 84.5,33.5 Z"/></g>
<g><path style="opacity:1" fill="#1074a5" d="M 95.5,39.5 C 94.5,39.5 93.5,39.5 92.5,39.5C 94.3861,33.236 95.3861,33.236 95.5,39.5 Z"/></g>
<g><path style="opacity:1" fill="#5497ba" d="M 50.5,31.5 C 51.1515,32.0906 51.8182,32.7573 52.5,33.5C 53.4168,32.8728 54.4168,32.5394 55.5,32.5C 55.8333,32.5 56.1667,32.5 56.5,32.5C 56.5,32.8333 56.5,33.1667 56.5,33.5C 55.0713,36.6963 53.4046,39.6963 51.5,42.5C 51.5,41.1667 51.5,39.8333 51.5,38.5C 50.209,38.2627 49.209,38.596 48.5,39.5C 48.1667,39.5 47.8333,39.5 47.5,39.5C 48.8832,37.0221 49.8832,34.3554 50.5,31.5 Z"/></g>
<g><path style="opacity:1" fill="#6da1b8" d="M 82.5,34.5 C 82.8333,34.5 83.1667,34.5 83.5,34.5C 82.9717,35.7206 82.305,36.8873 81.5,38C 82.756,38.4169 83.4226,39.2502 83.5,40.5C 81.5155,41.4335 80.1821,40.6001 79.5,38C 79.9778,36.3576 80.9778,35.1909 82.5,34.5 Z"/></g>
<g><path style="opacity:1" fill="#4b7db6" d="M 92.5,39.5 C 93.5,39.5 94.5,39.5 95.5,39.5C 95.8333,39.5 96.1667,39.5 96.5,39.5C 96.5,39.8333 96.5,40.1667 96.5,40.5C 94.5,40.5 93.5,41.5 93.5,43.5C 92.8333,43.5 92.1667,43.5 91.5,43.5C 91.5,42.5 91.5,41.5 91.5,40.5C 91.5,39.8333 91.8333,39.5 92.5,39.5 Z"/></g>
<g><path style="opacity:1" fill="#1175a5" d="M 51.5,42.5 C 50.5,42.5 49.5,42.5 48.5,42.5C 48.5,41.5 48.5,40.5 48.5,39.5C 49.209,38.596 50.209,38.2627 51.5,38.5C 51.5,39.8333 51.5,41.1667 51.5,42.5 Z"/></g>
<g><path style="opacity:0.592" fill="#cebada" d="M 96.5,39.5 C 99.1667,41.5 101.5,43.8333 103.5,46.5C 102.833,46.5 102.167,46.5 101.5,46.5C 100.5,44.8333 99.1667,43.5 97.5,42.5C 97.1667,41.8333 96.8333,41.1667 96.5,40.5C 96.5,40.1667 96.5,39.8333 96.5,39.5 Z"/></g>
<g><path style="opacity:1" fill="#0e75a5" d="M 88.5,40.5 C 89.5,40.5 90.5,40.5 91.5,40.5C 91.5,41.5 91.5,42.5 91.5,43.5C 89.901,43.7678 88.5676,43.4345 87.5,42.5C 87.8333,41.8333 88.1667,41.1667 88.5,40.5 Z"/></g>
<g><path style="opacity:1" fill="#488faf" d="M 47.5,39.5 C 47.8333,39.5 48.1667,39.5 48.5,39.5C 48.5,40.5 48.5,41.5 48.5,42.5C 49.5,42.5 50.5,42.5 51.5,42.5C 51.1551,45.1979 49.8218,47.1979 47.5,48.5C 47.4208,47.0695 47.7542,45.7362 48.5,44.5C 48.1445,43.4777 47.4778,42.811 46.5,42.5C 46.5569,41.391 46.8902,40.391 47.5,39.5 Z"/></g>
<g><path style="opacity:1" fill="#4f2b7f" d="M 96.5,40.5 C 96.8333,41.1667 97.1667,41.8333 97.5,42.5C 96.6236,42.3691 95.9569,42.7025 95.5,43.5C 96.1272,44.4168 96.4606,45.4168 96.5,46.5C 95.1667,45.8333 94.1667,44.8333 93.5,43.5C 93.5,41.5 94.5,40.5 96.5,40.5 Z"/></g>
<g><path style="opacity:1" fill="#629db6" d="M 88.5,39.5 C 88.5,39.8333 88.5,40.1667 88.5,40.5C 88.1667,41.1667 87.8333,41.8333 87.5,42.5C 86.596,43.209 86.2627,44.209 86.5,45.5C 85.8333,45.5 85.5,45.8333 85.5,46.5C 84.5,46.5 83.5,46.5 82.5,46.5C 83.7573,43.5726 85.7573,41.2393 88.5,39.5 Z"/></g>
<g><path style="opacity:1" fill="#267ca5" d="M 87.5,42.5 C 88.5676,43.4345 89.901,43.7678 91.5,43.5C 91.1667,44.1667 90.8333,44.8333 90.5,45.5C 89.0357,46.4054 87.7024,46.4054 86.5,45.5C 86.2627,44.209 86.596,43.209 87.5,42.5 Z"/></g>
<g><path style="opacity:1" fill="#480878" d="M 97.5,42.5 C 99.1667,43.5 100.5,44.8333 101.5,46.5C 99.9008,47.562 98.2341,47.562 96.5,46.5C 96.4606,45.4168 96.1272,44.4168 95.5,43.5C 95.9569,42.7025 96.6236,42.3691 97.5,42.5 Z"/></g>
<g><path style="opacity:1" fill="#71a9c4" d="M 86.5,45.5 C 87.7024,46.4054 89.0357,46.4054 90.5,45.5C 89.5,47.1667 88.1667,48.5 86.5,49.5C 86.1667,49.5 85.8333,49.5 85.5,49.5C 85.5,48.5 85.5,47.5 85.5,46.5C 85.5,45.8333 85.8333,45.5 86.5,45.5 Z"/></g>
<g><path style="opacity:1" fill="#3f8ab1" d="M 46.5,42.5 C 47.4778,42.811 48.1445,43.4777 48.5,44.5C 47.7542,45.7362 47.4208,47.0695 47.5,48.5C 47.1667,49.5 46.5,50.1667 45.5,50.5C 45.6567,49.1266 45.49,47.7932 45,46.5C 44.3292,47.2524 43.4959,47.5858 42.5,47.5C 43.604,45.6115 44.9373,43.9448 46.5,42.5 Z"/></g>
<g><path style="opacity:1" fill="#612f87" d="M 96.5,46.5 C 98.2341,47.562 99.9008,47.562 101.5,46.5C 102.167,46.5 102.833,46.5 103.5,46.5C 104.167,46.8333 104.833,47.1667 105.5,47.5C 105.5,47.8333 105.5,48.1667 105.5,48.5C 103.302,48.1201 101.635,48.7868 100.5,50.5C 98.8333,49.5 97.5,48.1667 96.5,46.5 Z"/></g>
<g><path style="opacity:1" fill="#1a779e" d="M 124.5,50.5 C 122.265,50.7947 120.265,50.4614 118.5,49.5C 120.394,48.9524 122.06,47.9524 123.5,46.5C 124.429,47.6888 124.762,49.0222 124.5,50.5 Z"/></g>
<g><path style="opacity:1" fill="#81b0bd" d="M 124.5,50.5 C 124.762,49.0222 124.429,47.6888 123.5,46.5C 122.06,47.9524 120.394,48.9524 118.5,49.5C 120.759,45.0891 123.425,44.5891 126.5,48C 126.361,49.301 125.695,50.1344 124.5,50.5 Z"/></g>
<g><path style="opacity:1" fill="#287ea9" d="M 45.5,50.5 C 45.1667,51.5 44.5,52.1667 43.5,52.5C 42.6993,50.9582 42.366,49.2915 42.5,47.5C 43.4959,47.5858 44.3292,47.2524 45,46.5C 45.49,47.7932 45.6567,49.1266 45.5,50.5 Z"/></g>
<g><path style="opacity:1" fill="#490f79" d="M 105.5,48.5 C 106.5,49.1667 107.5,49.8333 108.5,50.5C 108.5,51.8333 107.833,52.5 106.5,52.5C 105.167,52.1667 103.833,51.8333 102.5,51.5C 101.508,51.6716 100.842,51.3382 100.5,50.5C 101.635,48.7868 103.302,48.1201 105.5,48.5 Z"/></g>
<g><path style="opacity:0.925" fill="#a383b8" d="M 105.5,47.5 C 108.622,48.5612 111.622,49.8946 114.5,51.5C 114.5,51.8333 114.5,52.1667 114.5,52.5C 113.833,52.5 113.167,52.5 112.5,52.5C 111.329,51.6554 109.995,50.9887 108.5,50.5C 107.5,49.8333 106.5,49.1667 105.5,48.5C 105.5,48.1667 105.5,47.8333 105.5,47.5 Z"/></g>
<g><path style="opacity:1" fill="#0f73a8" d="M 82.5,46.5 C 83.5,46.5 84.5,46.5 85.5,46.5C 85.5,47.5 85.5,48.5 85.5,49.5C 84.8333,49.8333 84.1667,50.1667 83.5,50.5C 82.6236,50.6309 81.9569,50.2975 81.5,49.5C 82.1272,48.5832 82.4606,47.5832 82.5,46.5 Z"/></g>
<g><path style="opacity:1" fill="#4988b0" d="M 42.5,47.5 C 42.366,49.2915 42.6993,50.9582 43.5,52.5C 42.8902,53.391 42.5569,54.391 42.5,55.5C 41.8333,55.1667 41.1667,54.8333 40.5,54.5C 39.8333,54.1667 39.1667,53.8333 38.5,53.5C 38.1667,52.8333 37.8333,52.1667 37.5,51.5C 39.1667,50.1667 40.8333,48.8333 42.5,47.5 Z"/></g>
<g><path style="opacity:1" fill="#1a75a1" d="M 82.5,46.5 C 82.4606,47.5832 82.1272,48.5832 81.5,49.5C 81.9569,50.2975 82.6236,50.6309 83.5,50.5C 82.8333,51.8333 81.8333,52.8333 80.5,53.5C 80.6716,52.5084 80.3382,51.8417 79.5,51.5C 80.1098,50.609 80.4431,49.609 80.5,48.5C 80.8333,47.5 81.5,46.8333 82.5,46.5 Z"/></g>
<g><path style="opacity:1" fill="#629ebd" d="M 118.5,49.5 C 120.265,50.4614 122.265,50.7947 124.5,50.5C 123.5,52.1667 122.167,53.5 120.5,54.5C 119.448,52.744 117.781,52.0773 115.5,52.5C 115.167,52.5 114.833,52.5 114.5,52.5C 114.5,52.1667 114.5,51.8333 114.5,51.5C 116.062,51.2671 117.395,50.6005 118.5,49.5 Z"/></g>
<g><path style="opacity:1" fill="#5c297f" d="M 108.5,50.5 C 109.995,50.9887 111.329,51.6554 112.5,52.5C 109.752,52.4017 109.086,53.4017 110.5,55.5C 109.391,55.4431 108.391,55.1098 107.5,54.5C 107.167,53.8333 106.833,53.1667 106.5,52.5C 107.833,52.5 108.5,51.8333 108.5,50.5 Z"/></g>
<g><path style="opacity:1" fill="#6a3d8d" d="M 37.5,51.5 C 37.8333,52.1667 38.1667,52.8333 38.5,53.5C 36.1667,53.5 33.8333,53.5 31.5,53.5C 31.5,53.1667 31.5,52.8333 31.5,52.5C 33.32,50.5389 35.32,50.2056 37.5,51.5 Z"/></g>
<g><path style="opacity:0.412" fill="#caabd9" d="M 102.5,51.5 C 103.833,51.8333 105.167,52.1667 106.5,52.5C 106.833,53.1667 107.167,53.8333 107.5,54.5C 105.326,54.2503 103.659,53.2503 102.5,51.5 Z"/></g>
<g><path style="opacity:1" fill="#562683" d="M 112.5,52.5 C 113.167,52.5 113.833,52.5 114.5,52.5C 114.833,52.5 115.167,52.5 115.5,52.5C 115.5,52.8333 115.5,53.1667 115.5,53.5C 114.5,53.5 113.5,53.5 112.5,53.5C 112.5,54.5 112.5,55.5 112.5,56.5C 111.508,56.6716 110.842,56.3382 110.5,55.5C 109.086,53.4017 109.752,52.4017 112.5,52.5 Z"/></g>
<g><path style="opacity:1" fill="#5581b2" d="M 115.5,53.5 C 115.5,53.1667 115.5,52.8333 115.5,52.5C 117.781,52.0773 119.448,52.744 120.5,54.5C 120.5,55.1667 120.5,55.8333 120.5,56.5C 120.167,56.5 119.833,56.5 119.5,56.5C 118.167,55.5 116.833,54.5 115.5,53.5 Z"/></g>
<g><path style="opacity:0.6" fill="#bfaacd" d="M 31.5,52.5 C 31.5,52.8333 31.5,53.1667 31.5,53.5C 30.1667,54.1667 29.1667,55.1667 28.5,56.5C 28.1667,56.5 27.8333,56.5 27.5,56.5C 27.8333,54.1667 29.1667,52.8333 31.5,52.5 Z"/></g>
<g><path style="opacity:0.035" fill="#b2e6f1" d="M 85.5,49.5 C 85.8333,49.5 86.1667,49.5 86.5,49.5C 84.8333,51.5 83.1667,53.5 81.5,55.5C 81.1667,55.5 80.8333,55.5 80.5,55.5C 80.5,54.8333 80.5,54.1667 80.5,53.5C 81.8333,52.8333 82.8333,51.8333 83.5,50.5C 84.1667,50.1667 84.8333,49.8333 85.5,49.5 Z"/></g>
<g><path style="opacity:1" fill="#440777" d="M 31.5,53.5 C 33.8333,53.5 36.1667,53.5 38.5,53.5C 39.1667,53.8333 39.8333,54.1667 40.5,54.5C 39.4324,55.4345 38.099,55.7678 36.5,55.5C 34.2646,55.2053 32.2646,55.5386 30.5,56.5C 29.8333,56.8333 29.1667,57.1667 28.5,57.5C 28.5,57.1667 28.5,56.8333 28.5,56.5C 29.1667,55.1667 30.1667,54.1667 31.5,53.5 Z"/></g>
<g><path style="opacity:1" fill="#8d5baf" d="M 30.5,56.5 C 32.2646,55.5386 34.2646,55.2053 36.5,55.5C 36.5,55.8333 36.5,56.1667 36.5,56.5C 33.9931,56.6322 33.3264,57.6322 34.5,59.5C 33.8333,59.5 33.1667,59.5 32.5,59.5C 32.7148,57.8212 32.0481,56.8212 30.5,56.5 Z"/></g>
<g><path style="opacity:1" fill="#501f7e" d="M 40.5,54.5 C 41.1667,54.8333 41.8333,55.1667 42.5,55.5C 42.9227,57.7812 42.256,59.4479 40.5,60.5C 38.8333,59.5 37.5,58.1667 36.5,56.5C 36.5,56.1667 36.5,55.8333 36.5,55.5C 38.099,55.7678 39.4324,55.4345 40.5,54.5 Z"/></g>
<g><path style="opacity:1" fill="#2f7ea0" d="M 80.5,48.5 C 80.4431,49.609 80.1098,50.609 79.5,51.5C 78.5318,53.6074 78.1984,55.9407 78.5,58.5C 78.1667,58.5 77.8333,58.5 77.5,58.5C 75.9778,57.8091 74.9778,56.6424 74.5,55C 75.9855,52.3483 77.9855,50.1816 80.5,48.5 Z"/></g>
<g><path style="opacity:1" fill="#0776b0" d="M 79.5,51.5 C 80.3382,51.8417 80.6716,52.5084 80.5,53.5C 80.5,54.1667 80.5,54.8333 80.5,55.5C 80.7148,57.1788 80.0481,58.1788 78.5,58.5C 78.1984,55.9407 78.5318,53.6074 79.5,51.5 Z"/></g>
<g><path style="opacity:0.886" fill="#b793c7" d="M 112.5,56.5 C 114.404,56.7376 115.738,57.7376 116.5,59.5C 116.5,59.8333 116.5,60.1667 116.5,60.5C 114.833,59.5 113.5,58.1667 112.5,56.5 Z"/></g>
<g><path style="opacity:1" fill="#400a79" d="M 115.5,53.5 C 116.833,54.5 118.167,55.5 119.5,56.5C 119.5,58.5 118.5,59.5 116.5,59.5C 115.738,57.7376 114.404,56.7376 112.5,56.5C 112.5,55.5 112.5,54.5 112.5,53.5C 113.5,53.5 114.5,53.5 115.5,53.5 Z"/></g>
<g><path style="opacity:0.843" fill="#cbbcdb" d="M 120.5,56.5 C 124.227,60.2332 128.227,63.5665 132.5,66.5C 132.5,66.8333 132.5,67.1667 132.5,67.5C 131.833,67.5 131.167,67.5 130.5,67.5C 129.833,67.1667 129.167,66.8333 128.5,66.5C 127.5,64.8333 126.167,63.5 124.5,62.5C 123.833,61.1667 122.833,60.1667 121.5,59.5C 120.89,58.609 120.557,57.609 120.5,56.5 Z"/></g>
<g><path style="opacity:1" fill="#480380" d="M 30.5,56.5 C 32.0481,56.8212 32.7148,57.8212 32.5,59.5C 32.5,60.8333 31.8333,61.5 30.5,61.5C 29.2825,60.8386 27.9492,60.1719 26.5,59.5C 26.8555,58.4777 27.5222,57.811 28.5,57.5C 29.1667,57.1667 29.8333,56.8333 30.5,56.5 Z"/></g>
<g><path style="opacity:1" fill="#734890" d="M 42.5,55.5 C 46.3546,59.0355 50.1879,62.7021 54,66.5C 54.7083,65.6195 55.5416,64.9528 56.5,64.5C 56.5,64.8333 56.5,65.1667 56.5,65.5C 56.5,65.8333 56.5,66.1667 56.5,66.5C 55.2921,67.2341 53.9587,67.5674 52.5,67.5C 50.1492,64.8165 47.4825,62.4832 44.5,60.5C 44.1667,60.6667 43.8333,60.8333 43.5,61C 44.7577,62.7409 45.7577,64.5742 46.5,66.5C 44.1667,64.8333 42.1667,62.8333 40.5,60.5C 42.256,59.4479 42.9227,57.7812 42.5,55.5 Z"/></g>
<g><path style="opacity:0.102" fill="#c0e5ed" d="M 69.5,59.5 C 68.8333,59.5 68.1667,59.5 67.5,59.5C 65.4727,59.3379 63.4727,59.5045 61.5,60C 60.944,60.3826 60.6107,60.8826 60.5,61.5C 59.609,62.1098 58.609,62.4431 57.5,62.5C 58.2899,61.2058 59.2899,60.0391 60.5,59C 63.6965,58.1955 66.6965,58.3622 69.5,59.5 Z"/></g>
<g><path style="opacity:1" fill="#4086b1" d="M 80.5,55.5 C 80.8333,55.5 81.1667,55.5 81.5,55.5C 83.5,56.8333 85.1667,58.5 86.5,60.5C 84.0274,60.0882 82.6941,61.0882 82.5,63.5C 81.609,64.1098 80.609,64.4431 79.5,64.5C 79.5,64.1667 79.5,63.8333 79.5,63.5C 79.6716,62.5084 79.3382,61.8417 78.5,61.5C 78.5,61.1667 78.5,60.8333 78.5,60.5C 78.5,59.8333 78.5,59.1667 78.5,58.5C 80.0481,58.1788 80.7148,57.1788 80.5,55.5 Z"/></g>
<g><path style="opacity:1" fill="#66338c" d="M 119.5,56.5 C 119.833,56.5 120.167,56.5 120.5,56.5C 120.557,57.609 120.89,58.609 121.5,59.5C 120.094,59.9731 119.427,60.9731 119.5,62.5C 119.167,62.5 118.833,62.5 118.5,62.5C 117.5,62.1667 116.833,61.5 116.5,60.5C 116.5,60.1667 116.5,59.8333 116.5,59.5C 118.5,59.5 119.5,58.5 119.5,56.5 Z"/></g>
<g><path style="opacity:0.157" fill="#a0d0e3" d="M 77.5,58.5 C 77.8333,58.5 78.1667,58.5 78.5,58.5C 78.5,59.1667 78.5,59.8333 78.5,60.5C 74.6286,60.815 70.9619,60.4816 67.5,59.5C 68.1667,59.5 68.8333,59.5 69.5,59.5C 72.3854,59.8064 75.0521,59.4731 77.5,58.5 Z"/></g>
<g><path style="opacity:1" fill="#5c2a88" d="M 27.5,56.5 C 27.8333,56.5 28.1667,56.5 28.5,56.5C 28.5,56.8333 28.5,57.1667 28.5,57.5C 27.5222,57.811 26.8555,58.4777 26.5,59.5C 27.9492,60.1719 29.2825,60.8386 30.5,61.5C 28.8333,61.5 27.1667,61.5 25.5,61.5C 25.5,60.5 25.5,59.5 25.5,58.5C 25.8333,57.5 26.5,56.8333 27.5,56.5 Z"/></g>
<g><path style="opacity:1" fill="#5b257f" d="M 32.5,59.5 C 33.1667,59.5 33.8333,59.5 34.5,59.5C 36.1667,60.5 37.5,61.8333 38.5,63.5C 37.8166,65.1765 36.4832,65.8432 34.5,65.5C 33.1667,64.5 31.8333,63.5 30.5,62.5C 30.5,62.1667 30.5,61.8333 30.5,61.5C 31.8333,61.5 32.5,60.8333 32.5,59.5 Z"/></g>
<g><path style="opacity:1" fill="#247da2" d="M 67.5,59.5 C 70.9619,60.4816 74.6286,60.815 78.5,60.5C 78.5,60.8333 78.5,61.1667 78.5,61.5C 75.9223,62.2541 73.2556,62.2541 70.5,61.5C 67.0928,60.7846 63.7595,60.7846 60.5,61.5C 60.6107,60.8826 60.944,60.3826 61.5,60C 63.4727,59.5045 65.4727,59.3379 67.5,59.5 Z"/></g>
<g><path style="opacity:1" fill="#7b4c99" d="M 25.5,58.5 C 25.5,59.5 25.5,60.5 25.5,61.5C 27.1667,61.5 28.8333,61.5 30.5,61.5C 30.5,61.8333 30.5,62.1667 30.5,62.5C 29.1667,62.5 28.5,63.1667 28.5,64.5C 27.2223,64.2178 26.2223,63.5511 25.5,62.5C 24.1667,62.5 22.8333,62.5 21.5,62.5C 22.5,60.8333 23.8333,59.5 25.5,58.5 Z"/></g>
<g><path style="opacity:1" fill="#2875a3" d="M 70.5,61.5 C 72.9878,63.3878 75.9878,64.0545 79.5,63.5C 79.5,63.8333 79.5,64.1667 79.5,64.5C 74.799,64.6484 70.1323,64.3151 65.5,63.5C 63.6455,63.3402 62.3121,64.0069 61.5,65.5C 60.065,63.5989 58.3983,63.2655 56.5,64.5C 56.3284,63.5084 56.6618,62.8417 57.5,62.5C 58.609,62.4431 59.609,62.1098 60.5,61.5C 63.7595,60.7846 67.0928,60.7846 70.5,61.5 Z"/></g>
<g><path style="opacity:1" fill="#0478aa" d="M 70.5,61.5 C 73.2556,62.2541 75.9223,62.2541 78.5,61.5C 79.3382,61.8417 79.6716,62.5084 79.5,63.5C 75.9878,64.0545 72.9878,63.3878 70.5,61.5 Z"/></g>
<g><path style="opacity:1" fill="#430a75" d="M 121.5,59.5 C 122.833,60.1667 123.833,61.1667 124.5,62.5C 123.167,62.5 122.5,63.1667 122.5,64.5C 121.5,63.8333 120.5,63.1667 119.5,62.5C 119.427,60.9731 120.094,59.9731 121.5,59.5 Z"/></g>
<g><path style="opacity:1" fill="#4b0379" d="M 21.5,62.5 C 22.8333,62.5 24.1667,62.5 25.5,62.5C 25.4431,63.609 25.1098,64.609 24.5,65.5C 22.8212,65.7148 21.8212,65.0481 21.5,63.5C 21.5,63.1667 21.5,62.8333 21.5,62.5 Z"/></g>
<g><path style="opacity:1" fill="#441476" d="M 86.5,60.5 C 86.8333,61.8333 87.1667,63.1667 87.5,64.5C 87.1667,64.5 86.8333,64.5 86.5,64.5C 86.1583,63.6618 85.4916,63.3284 84.5,63.5C 83.8333,63.5 83.1667,63.5 82.5,63.5C 82.6941,61.0882 84.0274,60.0882 86.5,60.5 Z"/></g>
<g><path style="opacity:0.863" fill="#b193c8" d="M 118.5,62.5 C 118.833,62.5 119.167,62.5 119.5,62.5C 120.5,63.1667 121.5,63.8333 122.5,64.5C 122.5,65.1667 122.5,65.8333 122.5,66.5C 120.833,65.5 119.5,64.1667 118.5,62.5 Z"/></g>
<g><path style="opacity:1" fill="#491079" d="M 52.5,67.5 C 51.375,68.3478 51.375,69.3478 52.5,70.5C 51.8333,70.5 51.1667,70.5 50.5,70.5C 48.8333,69.5 47.5,68.1667 46.5,66.5C 45.7577,64.5742 44.7577,62.7409 43.5,61C 43.8333,60.8333 44.1667,60.6667 44.5,60.5C 47.4825,62.4832 50.1492,64.8165 52.5,67.5 Z"/></g>
<g><path style="opacity:0.706" fill="#8758a0" d="M 86.5,60.5 C 87.1174,60.6107 87.6174,60.944 88,61.5C 88.8099,65.3575 88.6433,69.0242 87.5,72.5C 87.5,71.8333 87.5,71.1667 87.5,70.5C 87.5,68.5 87.5,66.5 87.5,64.5C 87.1667,63.1667 86.8333,61.8333 86.5,60.5 Z"/></g>
<g><path style="opacity:1" fill="#6ea2bd" d="M 136.5,69.5 C 136.5,68.8333 136.5,68.1667 136.5,67.5C 137.478,67.189 138.145,66.5223 138.5,65.5C 137.311,64.5713 135.978,64.238 134.5,64.5C 135.823,61.2891 137.99,60.2891 141,61.5C 141.342,65.1448 139.842,67.8115 136.5,69.5 Z"/></g>
<g><path style="opacity:1" fill="#55217d" d="M 25.5,62.5 C 26.2223,63.5511 27.2223,64.2178 28.5,64.5C 29.5,64.8333 30.1667,65.5 30.5,66.5C 30.5,67.1667 30.5,67.8333 30.5,68.5C 29.8444,67.7222 29.0111,67.0556 28,66.5C 27.2352,66.5699 26.7352,66.9033 26.5,67.5C 25.8333,67.1667 25.1667,66.8333 24.5,66.5C 24.5,66.1667 24.5,65.8333 24.5,65.5C 25.1098,64.609 25.4431,63.609 25.5,62.5 Z"/></g>
<g><path style="opacity:1" fill="#4e237a" d="M 61.5,65.5 C 61.5,66.1667 61.8333,66.5 62.5,66.5C 63.7662,72.3702 63.7662,78.3702 62.5,84.5C 61.6618,84.1583 61.3284,83.4916 61.5,82.5C 61.5,79.5 61.5,76.5 61.5,73.5C 62.6605,68.8254 60.9939,66.1587 56.5,65.5C 56.5,65.1667 56.5,64.8333 56.5,64.5C 58.3983,63.2655 60.065,63.5989 61.5,65.5 Z"/></g>
<g><path style="opacity:0.459" fill="#b2dcee" d="M 79.5,64.5 C 74.8098,65.7783 69.9764,65.7783 65,64.5C 63.699,64.6387 62.8656,65.3054 62.5,66.5C 61.8333,66.5 61.5,66.1667 61.5,65.5C 62.3121,64.0069 63.6455,63.3402 65.5,63.5C 70.1323,64.3151 74.799,64.6484 79.5,64.5 Z"/></g>
<g><path style="opacity:1" fill="#267ca6" d="M 134.5,64.5 C 135.978,64.238 137.311,64.5713 138.5,65.5C 138.145,66.5223 137.478,67.189 136.5,67.5C 136.631,66.7611 136.464,66.0944 136,65.5C 135.184,66.8228 134.017,67.4894 132.5,67.5C 132.5,67.1667 132.5,66.8333 132.5,66.5C 132.833,65.5 133.5,64.8333 134.5,64.5 Z"/></g>
<g><path style="opacity:0.553" fill="#c0accf" d="M 21.5,62.5 C 21.5,62.8333 21.5,63.1667 21.5,63.5C 19.8333,64.5 18.5,65.8333 17.5,67.5C 16.5,67.8333 15.8333,68.5 15.5,69.5C 15.1667,69.5 14.8333,69.5 14.5,69.5C 15.8333,66.1667 18.1667,63.8333 21.5,62.5 Z"/></g>
<g><path style="opacity:1" fill="#4c1579" d="M 21.5,63.5 C 21.8212,65.0481 22.8212,65.7148 24.5,65.5C 24.5,65.8333 24.5,66.1667 24.5,66.5C 23.8333,66.5 23.5,66.8333 23.5,67.5C 22.609,66.8902 21.609,66.5569 20.5,66.5C 19.609,67.1098 18.609,67.4431 17.5,67.5C 18.5,65.8333 19.8333,64.5 21.5,63.5 Z"/></g>
<g><path style="opacity:1" fill="#724d8c" d="M 38.5,63.5 C 39.8012,65.456 39.3012,67.1226 37,68.5C 35.955,67.6266 35.1217,66.6266 34.5,65.5C 36.4832,65.8432 37.8166,65.1765 38.5,63.5 Z"/></g>
<g><path style="opacity:1" fill="#430574" d="M 84.5,63.5 C 85.4916,63.3284 86.1583,63.6618 86.5,64.5C 85.1667,66.5 85.1667,68.5 86.5,70.5C 86.5,71.5 86.5,72.5 86.5,73.5C 85.8333,73.1667 85.1667,72.8333 84.5,72.5C 84.5,69.5 84.5,66.5 84.5,63.5 Z"/></g>
<g><path style="opacity:1" fill="#46027a" d="M 86.5,64.5 C 86.8333,64.5 87.1667,64.5 87.5,64.5C 87.5,66.5 87.5,68.5 87.5,70.5C 87.1667,70.5 86.8333,70.5 86.5,70.5C 85.1667,68.5 85.1667,66.5 86.5,64.5 Z"/></g>
<g><path style="opacity:1" fill="#480d79" d="M 124.5,62.5 C 126.167,63.5 127.5,64.8333 128.5,66.5C 127.167,66.5 126.5,67.1667 126.5,68.5C 125.395,67.3995 124.062,66.7329 122.5,66.5C 122.5,65.8333 122.5,65.1667 122.5,64.5C 122.5,63.1667 123.167,62.5 124.5,62.5 Z"/></g>
<g><path style="opacity:0.906" fill="#af8fc7" d="M 23.5,67.5 C 23.5,66.8333 23.8333,66.5 24.5,66.5C 25.1667,66.8333 25.8333,67.1667 26.5,67.5C 27.9108,69.914 29.9108,71.5806 32.5,72.5C 31.7494,73.5735 30.7494,73.7401 29.5,73C 27.6298,70.9604 25.6298,69.1271 23.5,67.5 Z"/></g>
<g><path style="opacity:1" fill="#441174" d="M 30.5,68.5 C 31.391,69.1098 32.391,69.4431 33.5,69.5C 33.7373,70.791 33.404,71.791 32.5,72.5C 29.9108,71.5806 27.9108,69.914 26.5,67.5C 26.7352,66.9033 27.2352,66.5699 28,66.5C 29.0111,67.0556 29.8444,67.7222 30.5,68.5 Z"/></g>
<g><path style="opacity:1" fill="#48037f" d="M 56.5,65.5 C 60.9939,66.1587 62.6605,68.8254 61.5,73.5C 61.1667,73.5 60.8333,73.5 60.5,73.5C 60.5,71.8333 60.5,70.1667 60.5,68.5C 58.5168,68.8432 57.1834,68.1765 56.5,66.5C 56.5,66.1667 56.5,65.8333 56.5,65.5 Z"/></g>
<g><path style="opacity:0.804" fill="#bda0d2" d="M 122.5,66.5 C 124.062,66.7329 125.395,67.3995 126.5,68.5C 126.833,69.5 127.5,70.1667 128.5,70.5C 129.355,71.5307 130.022,72.6974 130.5,74C 130.43,74.7648 130.097,75.2648 129.5,75.5C 127.573,72.2327 125.239,69.2327 122.5,66.5 Z"/></g>
<g><path style="opacity:0.729" fill="#bc9fc8" d="M 30.5,66.5 C 31.8333,67.1667 32.8333,68.1667 33.5,69.5C 32.391,69.4431 31.391,69.1098 30.5,68.5C 30.5,67.8333 30.5,67.1667 30.5,66.5 Z"/></g>
<g><path style="opacity:1" fill="#460779" d="M 128.5,66.5 C 129.167,66.8333 129.833,67.1667 130.5,67.5C 130.5,67.8333 130.5,68.1667 130.5,68.5C 130.5,69.8333 129.833,70.5 128.5,70.5C 127.5,70.1667 126.833,69.5 126.5,68.5C 126.5,67.1667 127.167,66.5 128.5,66.5 Z"/></g>
<g><path style="opacity:1" fill="#648ab9" d="M 136.5,67.5 C 136.5,68.1667 136.5,68.8333 136.5,69.5C 135.833,71.5 135.167,73.5 134.5,75.5C 134.768,73.901 134.434,72.5676 133.5,71.5C 132.833,70.1667 131.833,69.1667 130.5,68.5C 130.5,68.1667 130.5,67.8333 130.5,67.5C 131.167,67.5 131.833,67.5 132.5,67.5C 134.017,67.4894 135.184,66.8228 136,65.5C 136.464,66.0944 136.631,66.7611 136.5,67.5 Z"/></g>
<g><path style="opacity:1" fill="#470779" d="M 56.5,66.5 C 57.1834,68.1765 58.5168,68.8432 60.5,68.5C 60.5,70.1667 60.5,71.8333 60.5,73.5C 60.5,74.1667 60.1667,74.5 59.5,74.5C 59.5,72.8333 59.5,71.1667 59.5,69.5C 58.209,69.2627 57.209,69.596 56.5,70.5C 55.1667,70.5 53.8333,70.5 52.5,70.5C 51.375,69.3478 51.375,68.3478 52.5,67.5C 53.9587,67.5674 55.2921,67.2341 56.5,66.5 Z"/></g>
<g><path style="opacity:1" fill="#47067c" d="M 20.5,66.5 C 20.5,68.1667 20.5,69.8333 20.5,71.5C 18.5,71.8333 16.5,72.1667 14.5,72.5C 14.0882,74.9726 15.0882,76.3059 17.5,76.5C 19.1667,80.1667 18.1667,81.1667 14.5,79.5C 13.8333,79.5 13.5,79.1667 13.5,78.5C 13.2895,75.248 13.9562,72.248 15.5,69.5C 15.8333,68.5 16.5,67.8333 17.5,67.5C 18.609,67.4431 19.609,67.1098 20.5,66.5 Z"/></g>
<g><path style="opacity:1" fill="#683e8c" d="M 50.5,70.5 C 51.1667,70.5 51.8333,70.5 52.5,70.5C 53.8333,70.5 55.1667,70.5 56.5,70.5C 56.5,70.8333 56.5,71.1667 56.5,71.5C 54.0484,74.2844 52.0484,73.951 50.5,70.5 Z"/></g>
<g><path style="opacity:0.698" fill="#bc96d9" d="M 59.5,74.5 C 59.1667,74.5 58.8333,74.5 58.5,74.5C 58.6567,73.1266 58.49,71.7932 58,70.5C 57.6174,71.056 57.1174,71.3893 56.5,71.5C 56.5,71.1667 56.5,70.8333 56.5,70.5C 57.209,69.596 58.209,69.2627 59.5,69.5C 59.5,71.1667 59.5,72.8333 59.5,74.5 Z"/></g>
<g><path style="opacity:1" fill="#714193" d="M 20.5,66.5 C 21.609,66.5569 22.609,66.8902 23.5,67.5C 22.375,68.6522 22.375,69.6522 23.5,70.5C 23.5,71.1667 23.5,71.8333 23.5,72.5C 21.9519,72.8212 21.2852,73.8212 21.5,75.5C 20.5178,74.8592 19.5178,74.1925 18.5,73.5C 17.6143,74.325 17.281,75.325 17.5,76.5C 15.0882,76.3059 14.0882,74.9726 14.5,72.5C 16.5,72.1667 18.5,71.8333 20.5,71.5C 20.5,69.8333 20.5,68.1667 20.5,66.5 Z"/></g>
<g><path style="opacity:0.671" fill="#ccb9d6" d="M 23.5,70.5 C 26.861,72.0861 28.1944,74.4194 27.5,77.5C 27.6716,76.5084 27.3382,75.8417 26.5,75.5C 25.8333,74.1667 24.8333,73.1667 23.5,72.5C 23.5,71.8333 23.5,71.1667 23.5,70.5 Z"/></g>
<g><path style="opacity:1" fill="#643681" d="M 82.5,63.5 C 83.1667,63.5 83.8333,63.5 84.5,63.5C 84.5,66.5 84.5,69.5 84.5,72.5C 84.5,75.8333 84.5,79.1667 84.5,82.5C 83.1071,80.4888 82.4404,78.1554 82.5,75.5C 83.5672,71.4307 83.5672,67.4307 82.5,63.5 Z"/></g>
<g><path style="opacity:0.6" fill="#a782bc" d="M 119.5,70.5 C 119.229,72.3797 119.896,73.713 121.5,74.5C 121.833,75.5 122.5,76.1667 123.5,76.5C 124.141,77.4822 124.807,78.4822 125.5,79.5C 125.376,80.1067 125.043,80.44 124.5,80.5C 122.873,78.3702 121.04,76.3702 119,74.5C 118.235,72.9343 118.402,71.6009 119.5,70.5 Z"/></g>
<g><path style="opacity:1" fill="#3f0c77" d="M 130.5,68.5 C 131.833,69.1667 132.833,70.1667 133.5,71.5C 133.19,72.7383 132.69,72.7383 132,71.5C 131.506,73.1341 131.34,74.8008 131.5,76.5C 130.833,76.5 130.5,76.8333 130.5,77.5C 129.833,77.5 129.167,77.5 128.5,77.5C 128.833,76.8333 129.167,76.1667 129.5,75.5C 130.097,75.2648 130.43,74.7648 130.5,74C 130.022,72.6974 129.355,71.5307 128.5,70.5C 129.833,70.5 130.5,69.8333 130.5,68.5 Z"/></g>
<g><path style="opacity:1" fill="#511e79" d="M 119.5,70.5 C 121.933,70.2729 123.599,71.2729 124.5,73.5C 123.209,73.2627 122.209,73.596 121.5,74.5C 119.896,73.713 119.229,72.3797 119.5,70.5 Z"/></g>
<g><path style="opacity:1" fill="#4d147c" d="M 133.5,71.5 C 134.434,72.5676 134.768,73.901 134.5,75.5C 134.443,76.609 134.11,77.609 133.5,78.5C 132.833,77.8333 132.167,77.1667 131.5,76.5C 131.34,74.8008 131.506,73.1341 132,71.5C 132.69,72.7383 133.19,72.7383 133.5,71.5 Z"/></g>
<g><path style="opacity:1" fill="#480a75" d="M 23.5,72.5 C 24.8333,73.1667 25.8333,74.1667 26.5,75.5C 25.0011,76.494 23.3344,76.494 21.5,75.5C 21.2852,73.8212 21.9519,72.8212 23.5,72.5 Z"/></g>
<g><path style="opacity:1" fill="#45017e" d="M 60.5,73.5 C 60.8333,73.5 61.1667,73.5 61.5,73.5C 61.5,76.5 61.5,79.5 61.5,82.5C 60.8333,82.1667 60.1667,81.8333 59.5,81.5C 59.5,79.1667 59.5,76.8333 59.5,74.5C 60.1667,74.5 60.5,74.1667 60.5,73.5 Z"/></g>
<g><path style="opacity:1" fill="#5c2886" d="M 124.5,73.5 C 125.82,74.9418 127.486,75.6085 129.5,75.5C 129.167,76.1667 128.833,76.8333 128.5,77.5C 126.883,76.962 125.216,76.6287 123.5,76.5C 122.5,76.1667 121.833,75.5 121.5,74.5C 122.209,73.596 123.209,73.2627 124.5,73.5 Z"/></g>
<g><path style="opacity:1" fill="#4b1975" d="M 14.5,69.5 C 14.8333,69.5 15.1667,69.5 15.5,69.5C 13.9562,72.248 13.2895,75.248 13.5,78.5C 13.1667,78.5 12.8333,78.5 12.5,78.5C 12.5,76.1667 12.5,73.8333 12.5,71.5C 12.8333,70.5 13.5,69.8333 14.5,69.5 Z"/></g>
<g><path style="opacity:1" fill="#6e4588" d="M 21.5,75.5 C 23.3344,76.494 25.0011,76.494 26.5,75.5C 27.3382,75.8417 27.6716,76.5084 27.5,77.5C 27.2172,78.2891 26.7172,78.9558 26,79.5C 24.0077,78.6719 22.5077,77.3386 21.5,75.5 Z"/></g>
<g><path style="opacity:1" fill="#744690" d="M 98.5,80.5 C 96.5,79.8333 94.5,79.1667 92.5,78.5C 90.7163,79.7199 89.0496,79.7199 87.5,78.5C 89.4358,77.741 91.2691,76.741 93,75.5C 95.3164,76.6504 97.1498,78.3171 98.5,80.5 Z"/></g>
<g><path style="opacity:1" fill="#83639b" d="M 116.5,76.5 C 114.824,77.1834 114.157,78.5168 114.5,80.5C 112.727,79.6857 112.227,78.3524 113,76.5C 114.292,75.2089 115.458,75.2089 116.5,76.5 Z"/></g>
<g><path style="opacity:1" fill="#724296" d="M 131.5,76.5 C 132.167,77.1667 132.833,77.8333 133.5,78.5C 131.833,80.8333 129.833,82.8333 127.5,84.5C 127.5,84.1667 127.5,83.8333 127.5,83.5C 127.579,82.0695 127.246,80.7362 126.5,79.5C 127.949,78.8281 129.282,78.1614 130.5,77.5C 130.5,76.8333 130.833,76.5 131.5,76.5 Z"/></g>
<g><path style="opacity:1" fill="#6b80a7" d="M 12.5,71.5 C 12.5,73.8333 12.5,76.1667 12.5,78.5C 12.6716,79.4916 12.3382,80.1583 11.5,80.5C 10.8333,80.5 10.1667,80.5 9.5,80.5C 10.9534,77.6065 11.9534,74.6065 12.5,71.5 Z"/></g>
<g><path style="opacity:1" fill="#683a8e" d="M 116.5,76.5 C 118.296,77.7927 119.963,79.2927 121.5,81C 122.577,81.4696 123.577,81.3029 124.5,80.5C 124.5,81.1667 124.5,81.8333 124.5,82.5C 124.167,82.5 123.833,82.5 123.5,82.5C 122.5,82.5 121.5,82.5 120.5,82.5C 119.167,81.1667 117.833,81.1667 116.5,82.5C 115.5,82.1667 114.833,81.5 114.5,80.5C 114.157,78.5168 114.824,77.1834 116.5,76.5 Z"/></g>
<g><path style="opacity:1" fill="#450478" d="M 123.5,76.5 C 125.216,76.6287 126.883,76.962 128.5,77.5C 129.167,77.5 129.833,77.5 130.5,77.5C 129.282,78.1614 127.949,78.8281 126.5,79.5C 127.246,80.7362 127.579,82.0695 127.5,83.5C 126.209,83.7373 125.209,83.404 124.5,82.5C 124.5,81.8333 124.5,81.1667 124.5,80.5C 125.043,80.44 125.376,80.1067 125.5,79.5C 124.807,78.4822 124.141,77.4822 123.5,76.5 Z"/></g>
<g><path style="opacity:1" fill="#5d2c85" d="M 17.5,76.5 C 20.5,78.8333 23.1667,81.5 25.5,84.5C 24.5,84.5 23.5,84.5 22.5,84.5C 23.1667,86.5 23.8333,88.5 24.5,90.5C 21.5,88.1667 18.8333,85.5 16.5,82.5C 15.8333,81.5 15.1667,80.5 14.5,79.5C 18.1667,81.1667 19.1667,80.1667 17.5,76.5 Z"/></g>
<g><path style="opacity:1" fill="#4b1876" d="M 86.5,70.5 C 86.8333,70.5 87.1667,70.5 87.5,70.5C 87.5,71.1667 87.5,71.8333 87.5,72.5C 87.5,74.5 87.5,76.5 87.5,78.5C 89.0496,79.7199 90.7163,79.7199 92.5,78.5C 92.5,79.1667 92.5,79.8333 92.5,80.5C 90.8235,81.1834 90.1568,82.5168 90.5,84.5C 90.5,85.1667 90.1667,85.5 89.5,85.5C 88.5084,85.6716 87.8417,85.3382 87.5,84.5C 89.0481,84.1788 89.7148,83.1788 89.5,81.5C 88.5,81.5 87.5,81.5 86.5,81.5C 86.5,78.8333 86.5,76.1667 86.5,73.5C 86.5,72.5 86.5,71.5 86.5,70.5 Z"/></g>
<g><path style="opacity:1" fill="#6f4099" d="M 92.5,80.5 C 94.0481,80.8212 94.7148,81.8212 94.5,83.5C 93.0379,82.5291 91.7046,82.8624 90.5,84.5C 90.1568,82.5168 90.8235,81.1834 92.5,80.5 Z"/></g>
<g><path style="opacity:1" fill="#47087b" d="M 92.5,78.5 C 94.5,79.1667 96.5,79.8333 98.5,80.5C 98.8769,82.258 99.5435,83.9246 100.5,85.5C 100.167,85.8333 99.8333,86.1667 99.5,86.5C 98.2742,84.7221 96.6075,83.7221 94.5,83.5C 94.7148,81.8212 94.0481,80.8212 92.5,80.5C 92.5,79.8333 92.5,79.1667 92.5,78.5 Z"/></g>
<g><path style="opacity:1" fill="#6993be" d="M 12.5,78.5 C 12.8333,78.5 13.1667,78.5 13.5,78.5C 13.5,79.1667 13.8333,79.5 14.5,79.5C 15.1667,80.5 15.8333,81.5 16.5,82.5C 15.391,82.5569 14.391,82.8902 13.5,83.5C 13.1667,83.5 12.8333,83.5 12.5,83.5C 11.8902,82.609 11.5569,81.609 11.5,80.5C 12.3382,80.1583 12.6716,79.4916 12.5,78.5 Z"/></g>
<g><path style="opacity:0.853" fill="#633484" d="M 58.5,74.5 C 58.8333,74.5 59.1667,74.5 59.5,74.5C 59.5,76.8333 59.5,79.1667 59.5,81.5C 59.448,83.9029 59.7814,86.2362 60.5,88.5C 58.9778,87.8091 57.9778,86.6424 57.5,85C 58.3822,81.5592 58.7155,78.0592 58.5,74.5 Z"/></g>
<g><path style="opacity:1" fill="#43057c" d="M 84.5,72.5 C 85.1667,72.8333 85.8333,73.1667 86.5,73.5C 86.5,76.1667 86.5,78.8333 86.5,81.5C 87.5,81.5 88.5,81.5 89.5,81.5C 89.7148,83.1788 89.0481,84.1788 87.5,84.5C 86.5,83.8333 85.5,83.1667 84.5,82.5C 84.5,79.1667 84.5,75.8333 84.5,72.5 Z"/></g>
<g><path style="opacity:1" fill="#6c3a8e" d="M 120.5,82.5 C 119.833,83.8333 119.167,85.1667 118.5,86.5C 118.267,84.9382 117.6,83.6049 116.5,82.5C 117.833,81.1667 119.167,81.1667 120.5,82.5 Z"/></g>
<g><path style="opacity:1" fill="#3381a9" d="M 9.5,80.5 C 10.1667,80.5 10.8333,80.5 11.5,80.5C 11.5569,81.609 11.8902,82.609 12.5,83.5C 11.8333,83.8333 11.1667,84.1667 10.5,84.5C 10.6309,83.6236 10.2975,82.9569 9.5,82.5C 8.58317,83.1272 7.58317,83.4606 6.5,83.5C 7.16667,82.1667 8.16667,81.1667 9.5,80.5 Z"/></g>
<g><path style="opacity:1" fill="#420e7b" d="M 59.5,81.5 C 60.1667,81.8333 60.8333,82.1667 61.5,82.5C 61.3284,83.4916 61.6618,84.1583 62.5,84.5C 62.8333,85.1667 63.1667,85.8333 63.5,86.5C 63.0269,87.9063 62.0269,88.573 60.5,88.5C 59.7814,86.2362 59.448,83.9029 59.5,81.5 Z"/></g>
<g><path style="opacity:1" fill="#7e569a" d="M 113.5,84.5 C 112.417,84.4606 111.417,84.1272 110.5,83.5C 109.614,84.325 109.281,85.325 109.5,86.5C 105.432,84.2702 105.599,82.2702 110,80.5C 111.376,81.7051 112.542,83.0384 113.5,84.5 Z"/></g>
<g><path style="opacity:1" fill="#7b4f99" d="M 123.5,82.5 C 123.833,82.5 124.167,82.5 124.5,82.5C 125.209,83.404 126.209,83.7373 127.5,83.5C 127.5,83.8333 127.5,84.1667 127.5,84.5C 126.833,85.8333 125.833,86.8333 124.5,87.5C 124.167,86.1667 123.833,84.8333 123.5,83.5C 123.5,83.1667 123.5,82.8333 123.5,82.5 Z"/></g>
<g><path style="opacity:1" fill="#4182a7" d="M 10.5,84.5 C 9.83333,85.5 9.16667,86.5 8.5,87.5C 7.81056,88.7736 6.97722,88.7736 6,87.5C 5.23502,85.9343 5.40168,84.6009 6.5,83.5C 7.58317,83.4606 8.58317,83.1272 9.5,82.5C 10.2975,82.9569 10.6309,83.6236 10.5,84.5 Z"/></g>
<g><path style="opacity:1" fill="#6aa4c1" d="M 84.5,83.5 C 80.9707,85.4228 76.9707,86.0894 72.5,85.5C 70.5853,85.2155 68.9187,85.5489 67.5,86.5C 66.5,86.5 65.5,86.5 64.5,86.5C 64.1667,86.5 63.8333,86.5 63.5,86.5C 63.1667,85.8333 62.8333,85.1667 62.5,84.5C 69.89,83.7831 77.2233,83.4497 84.5,83.5 Z"/></g>
<g><path style="opacity:1" fill="#46057b" d="M 120.5,82.5 C 121.5,82.5 122.5,82.5 123.5,82.5C 123.5,82.8333 123.5,83.1667 123.5,83.5C 122.549,84.9187 122.216,86.5853 122.5,88.5C 120.901,88.7678 119.568,88.4345 118.5,87.5C 118.5,87.1667 118.5,86.8333 118.5,86.5C 119.167,85.1667 119.833,83.8333 120.5,82.5 Z"/></g>
<g><path style="opacity:1" fill="#3077a9" d="M 84.5,82.5 C 85.5,83.1667 86.5,83.8333 87.5,84.5C 87.8417,85.3382 88.5084,85.6716 89.5,85.5C 89.1667,86.5 88.5,87.1667 87.5,87.5C 85.8333,87.5 84.1667,87.5 82.5,87.5C 79.1667,86.8333 75.8333,86.1667 72.5,85.5C 76.9707,86.0894 80.9707,85.4228 84.5,83.5C 84.5,83.1667 84.5,82.8333 84.5,82.5 Z"/></g>
<g><path style="opacity:0.024" fill="#b9e6ee" d="M 12.5,83.5 C 12.8333,83.5 13.1667,83.5 13.5,83.5C 12.4154,85.5869 10.7488,86.9202 8.5,87.5C 9.16667,86.5 9.83333,85.5 10.5,84.5C 11.1667,84.1667 11.8333,83.8333 12.5,83.5 Z"/></g>
<g><path style="opacity:1" fill="#0476ab" d="M 72.5,85.5 C 75.8333,86.1667 79.1667,86.8333 82.5,87.5C 77.3054,87.8205 72.3054,87.4872 67.5,86.5C 68.9187,85.5489 70.5853,85.2155 72.5,85.5 Z"/></g>
<g><path style="opacity:1" fill="#69398c" d="M 98.5,80.5 C 101.5,82.8333 104.167,85.5 106.5,88.5C 106.167,88.5 105.833,88.5 105.5,88.5C 104.153,87.9717 102.819,87.805 101.5,88C 102.337,89.0113 102.67,90.1779 102.5,91.5C 99.5,89.1667 96.8333,86.5 94.5,83.5C 96.6075,83.7221 98.2742,84.7221 99.5,86.5C 99.8333,86.1667 100.167,85.8333 100.5,85.5C 99.5435,83.9246 98.8769,82.258 98.5,80.5 Z"/></g>
<g><path style="opacity:1" fill="#7a4997" d="M 113.5,84.5 C 114.82,85.9418 116.486,86.6085 118.5,86.5C 118.5,86.8333 118.5,87.1667 118.5,87.5C 117.833,87.5 117.167,87.5 116.5,87.5C 115.127,87.3433 113.793,87.51 112.5,88C 113.554,89.3876 113.72,90.8876 113,92.5C 112.023,93.7736 111.189,93.7736 110.5,92.5C 111.478,92.189 112.145,91.5223 112.5,90.5C 111.476,89.1482 110.476,87.8149 109.5,86.5C 109.281,85.325 109.614,84.325 110.5,83.5C 111.417,84.1272 112.417,84.4606 113.5,84.5 Z"/></g>
<g><path style="opacity:1" fill="#46087a" d="M 25.5,84.5 C 25.8769,86.258 26.5435,87.9246 27.5,89.5C 26.675,90.3857 25.675,90.719 24.5,90.5C 23.8333,88.5 23.1667,86.5 22.5,84.5C 23.5,84.5 24.5,84.5 25.5,84.5 Z"/></g>
<g><path style="opacity:1" fill="#1878a5" d="M 64.5,86.5 C 65.5,86.5 66.5,86.5 67.5,86.5C 72.3054,87.4872 77.3054,87.8205 82.5,87.5C 80.7354,88.4614 78.7354,88.7947 76.5,88.5C 73.3019,87.9644 70.6353,88.631 68.5,90.5C 66.7356,89.674 65.4023,88.3407 64.5,86.5 Z"/></g>
<g><path style="opacity:1" fill="#4a8da9" d="M 82.5,87.5 C 84.1667,87.5 85.8333,87.5 87.5,87.5C 87.1667,88.5 86.5,89.1667 85.5,89.5C 82.2869,89.81 79.2869,89.4767 76.5,88.5C 78.7354,88.7947 80.7354,88.4614 82.5,87.5 Z"/></g>
<g><path style="opacity:1" fill="#42057c" d="M 105.5,88.5 C 105.5,89.5 105.5,90.5 105.5,91.5C 104.5,91.5 103.5,91.5 102.5,91.5C 102.67,90.1779 102.337,89.0113 101.5,88C 102.819,87.805 104.153,87.9717 105.5,88.5 Z"/></g>
<g><path style="opacity:0.729" fill="#c1e7f0" d="M 76.5,88.5 C 79.2869,89.4767 82.2869,89.81 85.5,89.5C 80.1573,90.0949 74.8239,90.4282 69.5,90.5C 69.1667,90.5 68.8333,90.5 68.5,90.5C 70.6353,88.631 73.3019,87.9644 76.5,88.5 Z"/></g>
<g><path style="opacity:1" fill="#764695" d="M 123.5,83.5 C 123.833,84.8333 124.167,86.1667 124.5,87.5C 122.833,89.8333 120.833,91.8333 118.5,93.5C 118.672,92.5084 118.338,91.8417 117.5,91.5C 117.567,90.0413 117.234,88.7079 116.5,87.5C 117.167,87.5 117.833,87.5 118.5,87.5C 119.568,88.4345 120.901,88.7678 122.5,88.5C 122.216,86.5853 122.549,84.9187 123.5,83.5 Z"/></g>
<g><path style="opacity:1" fill="#6b3d90" d="M 25.5,84.5 C 29.2874,88.6303 33.6207,91.9637 38.5,94.5C 37.1667,94.5 35.8333,94.5 34.5,94.5C 33.1759,93.0654 31.5092,92.0654 29.5,91.5C 28.8933,91.6236 28.56,91.9569 28.5,92.5C 28.1667,92.5 27.8333,92.5 27.5,92.5C 27.1667,92.5 26.8333,92.5 26.5,92.5C 25.5,92.1667 24.8333,91.5 24.5,90.5C 25.675,90.719 26.675,90.3857 27.5,89.5C 26.5435,87.9246 25.8769,86.258 25.5,84.5 Z"/></g>
<g><path style="opacity:1" fill="#2178ac" d="M 63.5,86.5 C 63.8333,86.5 64.1667,86.5 64.5,86.5C 65.4023,88.3407 66.7356,89.674 68.5,90.5C 68.8333,90.5 69.1667,90.5 69.5,90.5C 69.9227,92.7812 69.256,94.4479 67.5,95.5C 67.382,92.7504 66.0486,90.7504 63.5,89.5C 62.8933,89.6236 62.56,89.9569 62.5,90.5C 61.5,90.1667 60.8333,89.5 60.5,88.5C 62.0269,88.573 63.0269,87.9063 63.5,86.5 Z"/></g>
<g><path style="opacity:1" fill="#5f2d89" d="M 105.5,88.5 C 105.833,88.5 106.167,88.5 106.5,88.5C 108.167,89.5 109.5,90.8333 110.5,92.5C 109.178,92.67 108.011,92.3366 107,91.5C 106.722,92.4158 106.222,93.0825 105.5,93.5C 105.167,93.5 104.833,93.5 104.5,93.5C 103.5,93.1667 102.833,92.5 102.5,91.5C 103.5,91.5 104.5,91.5 105.5,91.5C 105.5,90.5 105.5,89.5 105.5,88.5 Z"/></g>
<g><path style="opacity:1" fill="#724296" d="M 117.5,91.5 C 118.338,91.8417 118.672,92.5084 118.5,93.5C 117.833,94.8333 116.833,95.8333 115.5,96.5C 115.5,96.1667 115.5,95.8333 115.5,95.5C 115.461,94.4168 115.127,93.4168 114.5,92.5C 115.325,91.6143 116.325,91.281 117.5,91.5 Z"/></g>
<g><path style="opacity:1" fill="#420a7e" d="M 34.5,94.5 C 33.791,95.404 32.791,95.7373 31.5,95.5C 30.1667,94.8333 29.1667,93.8333 28.5,92.5C 28.56,91.9569 28.8933,91.6236 29.5,91.5C 31.5092,92.0654 33.1759,93.0654 34.5,94.5 Z"/></g>
<g><path style="opacity:1" fill="#1f7ba8" d="M 67.5,95.5 C 66.5489,96.9187 66.2155,98.5853 66.5,100.5C 64.901,100.768 63.5676,100.434 62.5,99.5C 64.4428,98.7089 65.4428,97.2089 65.5,95C 65.3158,93.6244 64.6491,92.7911 63.5,92.5C 63.1667,91.8333 62.8333,91.1667 62.5,90.5C 62.56,89.9569 62.8933,89.6236 63.5,89.5C 66.0486,90.7504 67.382,92.7504 67.5,95.5 Z"/></g>
<g><path style="opacity:1" fill="#470b7c" d="M 116.5,87.5 C 117.234,88.7079 117.567,90.0413 117.5,91.5C 116.325,91.281 115.325,91.6143 114.5,92.5C 115.127,93.4168 115.461,94.4168 115.5,95.5C 112.833,95.5 110.167,95.5 107.5,95.5C 106.5,95.1667 105.833,94.5 105.5,93.5C 106.222,93.0825 106.722,92.4158 107,91.5C 108.011,92.3366 109.178,92.67 110.5,92.5C 111.189,93.7736 112.023,93.7736 113,92.5C 113.72,90.8876 113.554,89.3876 112.5,88C 113.793,87.51 115.127,87.3433 116.5,87.5 Z"/></g>
<g><path style="opacity:1" fill="#3e6ca9" d="M 27.5,92.5 C 27.8333,92.5 28.1667,92.5 28.5,92.5C 29.1667,93.8333 30.1667,94.8333 31.5,95.5C 31.5,95.8333 31.5,96.1667 31.5,96.5C 31.1667,96.5 30.8333,96.5 30.5,96.5C 29.1667,96.5 27.8333,96.5 26.5,96.5C 26.8333,95.1667 27.1667,93.8333 27.5,92.5 Z"/></g>
<g><path style="opacity:1" fill="#5997b8" d="M 69.5,90.5 C 71.0222,91.1909 72.0222,92.3576 72.5,94C 71.0145,96.6517 69.0145,98.8184 66.5,100.5C 66.2155,98.5853 66.5489,96.9187 67.5,95.5C 69.256,94.4479 69.9227,92.7812 69.5,90.5 Z"/></g>
<g><path style="opacity:1" fill="#71498f" d="M 107.5,95.5 C 110.167,95.5 112.833,95.5 115.5,95.5C 115.5,95.8333 115.5,96.1667 115.5,96.5C 113.598,98.1511 111.598,98.4845 109.5,97.5C 108.833,96.8333 108.167,96.1667 107.5,95.5 Z"/></g>
<g><path style="opacity:1" fill="#5d2985" d="M 34.5,94.5 C 35.8333,94.5 37.1667,94.5 38.5,94.5C 40.153,94.6596 41.4863,95.3263 42.5,96.5C 42.5,97.5 42.5,98.5 42.5,99.5C 40.1944,99.0074 37.861,98.6741 35.5,98.5C 33.847,98.3404 32.5137,97.6737 31.5,96.5C 31.5,96.1667 31.5,95.8333 31.5,95.5C 32.791,95.7373 33.791,95.404 34.5,94.5 Z"/></g>
<g><path style="opacity:1" fill="#68acc5" d="M 63.5,92.5 C 64.6491,92.7911 65.3158,93.6244 65.5,95C 65.4428,97.2089 64.4428,98.7089 62.5,99.5C 61.8333,99.5 61.1667,99.5 60.5,99.5C 61.8098,97.8523 63.1431,96.1856 64.5,94.5C 64.1373,93.8165 63.8039,93.1499 63.5,92.5 Z"/></g>
<g><path style="opacity:1" fill="#4c8cb3" d="M 104.5,93.5 C 104.833,93.5 105.167,93.5 105.5,93.5C 105.833,94.5 106.5,95.1667 107.5,95.5C 108.167,96.1667 108.833,96.8333 109.5,97.5C 107.167,99.5 104.833,101.5 102.5,103.5C 100.781,102.978 99.4475,101.978 98.5,100.5C 100.5,98.1667 102.5,95.8333 104.5,93.5 Z"/></g>
<g><path style="opacity:1" fill="#2c7ca4" d="M 26.5,92.5 C 26.8333,92.5 27.1667,92.5 27.5,92.5C 27.1667,93.8333 26.8333,95.1667 26.5,96.5C 25.2804,98.2821 24.6138,100.282 24.5,102.5C 23.0047,102.585 22.0047,101.919 21.5,100.5C 23.2776,98.736 24.6109,96.736 25.5,94.5C 25.8333,93.8333 26.1667,93.1667 26.5,92.5 Z"/></g>
<g><path style="opacity:1" fill="#5896bd" d="M 26.5,96.5 C 27.8333,96.5 29.1667,96.5 30.5,96.5C 28.8333,98.8333 26.8333,100.833 24.5,102.5C 24.6138,100.282 25.2804,98.2821 26.5,96.5 Z"/></g>
<g><path style="opacity:1" fill="#68388b" d="M 42.5,96.5 C 45.0892,97.4194 47.0892,99.086 48.5,101.5C 43.5296,100.491 43.1962,101.491 47.5,104.5C 47.5,105.167 47.5,105.833 47.5,106.5C 43.8071,103.324 39.8071,100.657 35.5,98.5C 37.861,98.6741 40.1944,99.0074 42.5,99.5C 42.5,98.5 42.5,97.5 42.5,96.5 Z"/></g>
<g><path style="opacity:0.49" fill="#92bdcd" d="M 25.5,94.5 C 24.6109,96.736 23.2776,98.736 21.5,100.5C 22.0047,101.919 23.0047,102.585 24.5,102.5C 22.3161,103.983 20.9827,103.316 20.5,100.5C 21.4344,97.8982 23.1011,95.8982 25.5,94.5 Z"/></g>
<g><path style="opacity:1" fill="#468fb5" d="M 60.5,99.5 C 61.1667,99.5 61.8333,99.5 62.5,99.5C 63.5676,100.434 64.901,100.768 66.5,100.5C 65.1667,102.5 63.5,104.167 61.5,105.5C 60.147,104.474 59.147,103.141 58.5,101.5C 58.8333,100.5 59.5,99.8333 60.5,99.5 Z"/></g>
<g><path style="opacity:1" fill="#460777" d="M 48.5,101.5 C 48.4142,102.496 48.7476,103.329 49.5,104C 48.9056,104.464 48.2389,104.631 47.5,104.5C 43.1962,101.491 43.5296,100.491 48.5,101.5 Z"/></g>
<g><path style="opacity:1" fill="#60a0bf" d="M 98.5,100.5 C 99.4475,101.978 100.781,102.978 102.5,103.5C 101.308,105.113 100.308,106.78 99.5,108.5C 99.7845,106.585 99.4511,104.919 98.5,103.5C 97.8333,103.167 97.1667,102.833 96.5,102.5C 96.8333,101.5 97.5,100.833 98.5,100.5 Z"/></g>
<g><path style="opacity:1" fill="#5c9cc0" d="M 58.5,101.5 C 59.147,103.141 60.147,104.474 61.5,105.5C 60.8333,106.833 59.8333,107.833 58.5,108.5C 58.9227,106.219 58.256,104.552 56.5,103.5C 56.8333,102.5 57.5,101.833 58.5,101.5 Z"/></g>
<g><path style="opacity:1" fill="#58237f" d="M 48.5,101.5 C 49.5,102.167 50.5,102.833 51.5,103.5C 53.3011,106.226 52.6344,107.892 49.5,108.5C 48.5,108.167 47.8333,107.5 47.5,106.5C 47.5,105.833 47.5,105.167 47.5,104.5C 48.2389,104.631 48.9056,104.464 49.5,104C 48.7476,103.329 48.4142,102.496 48.5,101.5 Z"/></g>
<g><path style="opacity:1" fill="#1074a9" d="M 96.5,102.5 C 97.1667,102.833 97.8333,103.167 98.5,103.5C 97.2513,111.348 96.5846,111.348 96.5,103.5C 96.5,103.167 96.5,102.833 96.5,102.5 Z"/></g>
<g><path style="opacity:1" fill="#448eb2" d="M 56.5,103.5 C 58.256,104.552 58.9227,106.219 58.5,108.5C 57.075,109.922 56.075,111.589 55.5,113.5C 53.9519,113.179 53.2852,112.179 53.5,110.5C 54.5862,110.38 55.2528,109.713 55.5,108.5C 55.0576,107.261 54.3909,106.261 53.5,105.5C 54.5,104.833 55.5,104.167 56.5,103.5 Z"/></g>
<g><path style="opacity:1" fill="#3181aa" d="M 96.5,103.5 C 96.5846,111.348 97.2513,111.348 98.5,103.5C 99.4511,104.919 99.7845,106.585 99.5,108.5C 99.1667,109.167 98.8333,109.833 98.5,110.5C 96.2736,112.18 94.6069,111.847 93.5,109.5C 93.9925,107.181 94.9925,105.181 96.5,103.5 Z"/></g>
<g><path style="opacity:1" fill="#3978ac" d="M 51.5,103.5 C 52.5,103.833 53.1667,104.5 53.5,105.5C 54.3909,106.261 55.0576,107.261 55.5,108.5C 55.2528,109.713 54.5862,110.38 53.5,110.5C 52.2223,110.782 51.2223,111.449 50.5,112.5C 50.5634,111.34 50.2301,110.006 49.5,108.5C 52.6344,107.892 53.3011,106.226 51.5,103.5 Z"/></g>
<g><path style="opacity:0.953" fill="#62a3bd" d="M 65.5,112.5 C 65.0133,111.527 64.5133,110.527 64,109.5C 62.871,111.141 61.371,112.141 59.5,112.5C 60.7927,110.704 62.2927,109.037 64,107.5C 65.5,108.333 66.6667,109.5 67.5,111C 66.9558,111.717 66.2891,112.217 65.5,112.5 Z"/></g>
<g><path style="opacity:1" fill="#5b96b7" d="M 93.5,109.5 C 94.6069,111.847 96.2736,112.18 98.5,110.5C 97.7729,112.954 96.7729,115.287 95.5,117.5C 94.6981,116.048 94.1981,114.382 94,112.5C 92.6244,113.705 91.4577,115.038 90.5,116.5C 89.5326,117.806 88.1993,118.473 86.5,118.5C 89.2745,115.74 91.6078,112.74 93.5,109.5 Z"/></g>
<g><path style="opacity:1" fill="#2473a8" d="M 95.5,117.5 C 96.1667,117.5 96.5,117.833 96.5,118.5C 95.0413,118.433 93.7079,118.766 92.5,119.5C 91.0937,119.027 90.427,118.027 90.5,116.5C 91.4577,115.038 92.6244,113.705 94,112.5C 94.1981,114.382 94.6981,116.048 95.5,117.5 Z"/></g>
<g><path style="opacity:1" fill="#4d91b6" d="M 65.5,112.5 C 64.1667,114.5 62.5,116.167 60.5,117.5C 60.1627,114.664 58.8293,113.998 56.5,115.5C 56.1667,114.833 55.8333,114.167 55.5,113.5C 56.9587,113.567 58.2921,113.234 59.5,112.5C 61.371,112.141 62.871,111.141 64,109.5C 64.5133,110.527 65.0133,111.527 65.5,112.5 Z"/></g>
<g><path style="opacity:1" fill="#3082a9" d="M 53.5,110.5 C 53.2852,112.179 53.9519,113.179 55.5,113.5C 55.8333,114.167 56.1667,114.833 56.5,115.5C 53.7822,117.423 54.1155,118.756 57.5,119.5C 57.5,120.5 57.5,121.5 57.5,122.5C 53.5759,120.248 51.2426,116.915 50.5,112.5C 51.2223,111.449 52.2223,110.782 53.5,110.5 Z"/></g>
<g><path style="opacity:1" fill="#077bad" d="M 56.5,115.5 C 57.1408,116.482 57.8075,117.482 58.5,118.5C 58.3764,119.107 58.0431,119.44 57.5,119.5C 54.1155,118.756 53.7822,117.423 56.5,115.5 Z"/></g>
<g><path style="opacity:1" fill="#5c98b5" d="M 67.5,121.5 C 67.5,120.5 67.5,119.5 67.5,118.5C 66.5,118.5 65.5,118.5 64.5,118.5C 65.9991,115.468 68.3324,113.968 71.5,114C 72.5536,115.388 72.7203,116.888 72,118.5C 70.3853,119.386 68.8853,120.386 67.5,121.5 Z"/></g>
<g><path style="opacity:1" fill="#4089ae" d="M 90.5,116.5 C 90.427,118.027 91.0937,119.027 92.5,119.5C 92.5,119.833 92.5,120.167 92.5,120.5C 90.9382,120.733 89.6049,121.4 88.5,122.5C 88.719,121.325 88.3857,120.325 87.5,119.5C 86.1482,120.524 84.8149,121.524 83.5,122.5C 83.7376,120.596 84.7376,119.262 86.5,118.5C 88.1993,118.473 89.5326,117.806 90.5,116.5 Z"/></g>
<g><path style="opacity:1" fill="#2c7fa8" d="M 60.5,117.5 C 59.6457,118.632 59.6457,119.965 60.5,121.5C 60.5569,122.609 60.8902,123.609 61.5,124.5C 61.5,125.167 61.5,125.833 61.5,126.5C 59.8333,125.5 58.5,124.167 57.5,122.5C 57.5,121.5 57.5,120.5 57.5,119.5C 58.0431,119.44 58.3764,119.107 58.5,118.5C 57.8075,117.482 57.1408,116.482 56.5,115.5C 58.8293,113.998 60.1627,114.664 60.5,117.5 Z"/></g>
<g><path style="opacity:1" fill="#5299bc" d="M 60.5,117.5 C 61.4033,119.62 62.7367,119.954 64.5,118.5C 64.3059,120.912 62.9726,121.912 60.5,121.5C 59.6457,119.965 59.6457,118.632 60.5,117.5 Z"/></g>
<g><path style="opacity:1" fill="#502681" d="M 96.5,118.5 C 99.0835,120.419 98.7502,122.086 95.5,123.5C 94.4777,123.145 93.811,122.478 93.5,121.5C 93.5,120.833 93.1667,120.5 92.5,120.5C 92.5,120.167 92.5,119.833 92.5,119.5C 93.7079,118.766 95.0413,118.433 96.5,118.5 Z"/></g>
<g><path style="opacity:1" fill="#157aab" d="M 64.5,118.5 C 65.5,118.5 66.5,118.5 67.5,118.5C 67.5,119.5 67.5,120.5 67.5,121.5C 67.5,122.167 67.1667,122.5 66.5,122.5C 66.1667,122.5 65.8333,122.5 65.5,122.5C 64.5326,123.806 63.1993,124.473 61.5,124.5C 60.8902,123.609 60.5569,122.609 60.5,121.5C 62.9726,121.912 64.3059,120.912 64.5,118.5 Z"/></g>
<g><path style="opacity:1" fill="#79abbd" d="M 75.5,125.5 C 75.2865,123.856 75.6198,122.356 76.5,121C 75.1807,120.805 73.8474,120.972 72.5,121.5C 73.9321,119.353 75.7655,119.02 78,120.5C 78.2494,122.668 77.4161,124.335 75.5,125.5 Z"/></g>
<g><path style="opacity:1" fill="#5695b3" d="M 75.5,125.5 C 75.5,126.167 75.1667,126.5 74.5,126.5C 74.87,122.814 73.5367,121.814 70.5,123.5C 70.8333,122.5 71.5,121.833 72.5,121.5C 73.8474,120.972 75.1807,120.805 76.5,121C 75.6198,122.356 75.2865,123.856 75.5,125.5 Z"/></g>
<g><path style="opacity:1" fill="#0f75a5" d="M 88.5,122.5 C 88.1667,123.5 87.5,124.167 86.5,124.5C 85.5041,124.414 84.6708,124.748 84,125.5C 83.5172,124.552 83.3505,123.552 83.5,122.5C 84.8149,121.524 86.1482,120.524 87.5,119.5C 88.3857,120.325 88.719,121.325 88.5,122.5 Z"/></g>
<g><path style="opacity:1" fill="#4491b6" d="M 74.5,126.5 C 73.3995,127.605 72.7329,128.938 72.5,130.5C 71.1667,129.833 69.8333,129.167 68.5,128.5C 69.5676,127.566 70.901,127.232 72.5,127.5C 72.7148,125.821 72.0481,124.821 70.5,124.5C 70.5,124.167 70.5,123.833 70.5,123.5C 73.5367,121.814 74.87,122.814 74.5,126.5 Z"/></g>
<g><path style="opacity:0.055" fill="#b9e1ec" d="M 92.5,120.5 C 93.1667,120.5 93.5,120.833 93.5,121.5C 90.5691,123.091 87.9024,125.091 85.5,127.5C 85.5569,126.391 85.8902,125.391 86.5,124.5C 87.5,124.167 88.1667,123.5 88.5,122.5C 89.6049,121.4 90.9382,120.733 92.5,120.5 Z"/></g>
<g><path style="opacity:1" fill="#6caac6" d="M 65.5,122.5 C 65.8333,122.5 66.1667,122.5 66.5,122.5C 67.2107,124.842 68.544,125.175 70.5,123.5C 70.5,123.833 70.5,124.167 70.5,124.5C 69.3646,126.213 67.698,126.88 65.5,126.5C 65.5,125.167 65.5,123.833 65.5,122.5 Z"/></g>
<g><path style="opacity:1" fill="#66a0bd" d="M 83.5,122.5 C 83.3505,123.552 83.5172,124.552 84,125.5C 84.6708,124.748 85.5041,124.414 86.5,124.5C 85.8902,125.391 85.5569,126.391 85.5,127.5C 83.7484,129.246 82.4151,131.246 81.5,133.5C 81.1667,133.5 80.8333,133.5 80.5,133.5C 80.5,133.167 80.5,132.833 80.5,132.5C 81.6298,130.685 82.2964,128.685 82.5,126.5C 81.5,126.5 80.5,126.5 79.5,126.5C 80.5,124.833 81.8333,123.5 83.5,122.5 Z"/></g>
<g><path style="opacity:1" fill="#0f77a7" d="M 65.5,122.5 C 65.5,123.833 65.5,125.167 65.5,126.5C 67.698,126.88 69.3646,126.213 70.5,124.5C 72.0481,124.821 72.7148,125.821 72.5,127.5C 70.901,127.232 69.5676,127.566 68.5,128.5C 66.079,128.122 63.7457,127.455 61.5,126.5C 61.5,125.833 61.5,125.167 61.5,124.5C 63.1993,124.473 64.5326,123.806 65.5,122.5 Z"/></g>
<g><path style="opacity:1" fill="#2b7fab" d="M 61.5,126.5 C 63.7457,127.455 66.079,128.122 68.5,128.5C 69.8333,129.167 71.1667,129.833 72.5,130.5C 72.5,131.5 72.5,132.5 72.5,133.5C 70.1791,132.523 67.8458,131.523 65.5,130.5C 63.8333,129.5 62.5,128.167 61.5,126.5 Z"/></g>
<g><path style="opacity:1" fill="#247ca9" d="M 79.5,126.5 C 80.5,126.5 81.5,126.5 82.5,126.5C 82.2964,128.685 81.6298,130.685 80.5,132.5C 79.2921,131.766 77.9587,131.433 76.5,131.5C 77.1098,130.609 77.4431,129.609 77.5,128.5C 77.8333,127.5 78.5,126.833 79.5,126.5 Z"/></g>
<g><path style="opacity:1" fill="#2373ab" d="M 76.5,131.5 C 77.9587,131.433 79.2921,131.766 80.5,132.5C 80.5,132.833 80.5,133.167 80.5,133.5C 78.9731,133.427 77.9731,134.094 77.5,135.5C 72.8525,134.602 72.5191,133.269 76.5,131.5 Z"/></g>
<g><path style="opacity:1" fill="#5597b6" d="M 77.5,128.5 C 77.4431,129.609 77.1098,130.609 76.5,131.5C 72.5191,133.269 72.8525,134.602 77.5,135.5C 77.5,135.833 77.5,136.167 77.5,136.5C 72.1288,137.148 68.1288,135.148 65.5,130.5C 67.8458,131.523 70.1791,132.523 72.5,133.5C 72.5,132.5 72.5,131.5 72.5,130.5C 74.5138,130.608 76.1805,129.942 77.5,128.5 Z"/></g>
<g><path style="opacity:1" fill="#704790" d="M 80.5,133.5 C 80.8333,133.5 81.1667,133.5 81.5,133.5C 83.8989,134.898 85.5656,136.898 86.5,139.5C 85.3968,142.982 83.7301,143.315 81.5,140.5C 79.8333,139.5 78.5,138.167 77.5,136.5C 77.5,136.167 77.5,135.833 77.5,135.5C 77.9731,134.094 78.9731,133.427 80.5,133.5 Z"/></g>
<g><path style="opacity:1" fill="#460977" d="M 81.5,140.5 C 81.4606,139.417 81.1272,138.417 80.5,137.5C 82.204,136.177 83.5373,136.51 84.5,138.5C 83.9953,139.919 82.9953,140.585 81.5,140.5 Z"/></g>
</svg>
